{"glyphs":{"0":{"ha":646,"x_min":0,"x_max":0,"o":"m 603 507 b 603 507 603 507 603 507 l 603 282 b 603 281 603 281 603 281 b 321 1 601 126 475 1 b 40 281 167 1 42 126 b 40 282 40 281 40 281 l 40 465 b 40 465 40 465 40 465 l 40 692 b 40 693 40 692 40 693 b 321 972 42 847 167 972 b 603 693 475 972 601 847 b 603 692 603 693 603 692 l 603 507 m 321 139 b 465 283 401 139 465 203 l 465 465 b 465 465 465 465 465 465 l 465 690 b 321 835 465 769 401 835 b 178 690 242 835 178 769 l 178 507 b 178 507 178 507 178 507 l 178 283 b 321 139 178 203 242 139 "},"1":{"ha":268,"x_min":0,"x_max":0,"o":"m 6 904 b 75 972 6 943 36 972 b 157 972 153 972 154 972 b 214 910 189 972 213 936 l 214 68 b 146 -1 214 29 183 -1 b 76 68 107 -1 76 29 l 76 836 b 6 904 36 836 6 867 "},"2":{"ha":649,"x_min":0,"x_max":0,"o":"m 546 135 b 613 67 583 135 613 104 b 546 0 613 29 583 0 l 104 0 b 38 67 67 0 38 29 b 56 114 38 86 44 97 l 461 629 b 254 818 521 758 382 890 b 185 697 213 793 185 747 b 115 629 185 660 154 629 b 46 697 78 629 46 660 b 126 889 46 772 78 840 l 126 890 b 444 950 213 976 340 996 b 593 797 513 919 567 865 b 576 561 624 725 628 626 l 242 135 l 546 135 "},"3":{"ha":622,"x_min":0,"x_max":0,"o":"m 489 485 b 586 271 547 435 586 360 b 313 -3 586 125 458 -3 b 29 240 165 -3 50 103 b 90 319 29 281 50 310 b 165 261 126 319 165 289 b 313 133 178 183 236 133 b 449 271 392 133 449 193 b 313 417 449 347 392 417 b 246 485 272 417 246 447 b 313 554 246 524 272 554 b 449 700 392 554 449 621 b 313 838 449 776 392 838 b 165 728 246 838 178 786 b 90 671 157 692 126 661 b 29 749 50 679 29 710 b 313 972 60 885 178 972 b 586 700 458 972 586 856 b 489 485 586 611 547 533 "},"4":{"ha":756,"x_min":0,"x_max":0,"o":"m 544 0 b 475 69 506 0 475 32 l 475 211 l 92 211 b 28 254 64 211 38 228 b 38 325 18 279 22 306 l 492 954 l 494 957 b 571 972 515 978 544 983 b 614 908 597 963 614 936 l 614 350 l 663 350 b 732 281 701 350 732 319 b 663 211 732 243 701 211 l 614 211 l 614 69 b 544 0 614 32 583 0 m 146 238 b 146 239 146 238 146 239 m 475 350 l 475 710 l 236 350 "},"5":{"ha":735,"x_min":0,"x_max":0,"o":"m 261 685 b 699 347 467 736 699 583 b 350 -1 699 156 542 -1 l 350 -1 b 350 -1 350 -1 350 -1 b 350 -1 350 -1 350 -1 l 350 -1 b 36 194 215 -1 96 74 b 68 286 19 229 35 269 b 160 256 103 303 143 289 b 350 136 196 182 268 136 b 561 347 467 136 561 231 b 350 558 561 464 465 558 b 240 528 310 558 272 547 b 193 510 225 519 215 510 b 125 571 157 510 128 536 b 125 906 125 585 125 600 b 125 907 125 907 125 907 b 125 907 125 907 125 907 b 193 975 125 944 156 975 l 631 975 b 700 907 668 975 700 944 b 631 838 700 869 668 838 l 261 838 l 261 685 "},"6":{"ha":750,"x_min":0,"x_max":0,"o":"m 453 682 b 711 269 636 640 754 454 b 299 10 669 85 483 -33 b 39 424 113 51 -4 238 b 353 943 50 476 85 522 b 449 960 376 975 418 982 b 465 864 479 938 486 896 l 353 688 b 453 682 386 692 417 690 m 329 142 b 579 300 440 117 553 186 b 422 550 604 413 533 524 b 171 393 308 575 197 506 b 329 142 146 279 215 168 "},"7":{"ha":743,"x_min":0,"x_max":0,"o":"m 696 935 b 694 863 708 911 708 888 l 694 863 l 158 39 b 100 7 144 18 122 7 b 63 18 88 7 74 10 b 42 114 31 39 21 82 l 508 831 l 108 831 b 39 900 69 831 39 861 b 108 969 39 939 69 969 l 636 969 b 696 935 661 969 683 956 "},"8":{"ha":608,"x_min":0,"x_max":0,"o":"m 586 703 b 489 488 586 614 547 536 b 586 274 547 438 586 363 b 307 0 586 124 457 6 b 29 274 167 0 29 119 b 126 488 29 363 68 438 b 29 703 68 536 29 614 b 307 975 29 851 151 975 b 586 703 463 975 578 863 m 307 136 b 449 274 378 140 449 194 b 307 419 449 350 390 418 b 167 274 232 419 167 356 b 307 136 167 199 231 143 m 307 840 b 167 703 235 838 167 782 b 303 557 167 624 224 557 b 307 557 304 557 306 557 b 313 557 310 557 311 557 b 449 703 392 557 449 624 b 307 840 449 779 385 835 "},"9":{"ha":754,"x_min":0,"x_max":0,"o":"m 297 289 b 39 701 114 331 -4 517 b 451 961 81 886 267 1004 b 711 547 638 919 754 733 b 397 28 700 494 665 449 b 301 11 374 -4 332 -11 b 285 107 271 33 264 75 l 397 283 b 297 289 364 279 333 281 m 421 829 b 171 671 310 854 197 785 b 328 421 146 558 217 447 b 579 578 442 396 553 465 b 421 829 604 692 535 803 "},"a":{"ha":765,"x_min":0,"x_max":0,"o":"m 386 694 b 728 343 582 694 728 539 l 728 71 b 658 1 728 31 699 1 b 592 71 631 1 592 31 l 592 71 b 386 1 532 21 465 1 b 35 343 190 1 35 147 b 386 694 35 539 190 694 m 386 138 b 592 343 503 138 592 226 b 386 558 592 460 503 558 b 171 343 269 558 171 460 b 386 138 171 226 269 138 "},"b":{"ha":778,"x_min":0,"x_max":0,"o":"m 392 700 b 740 351 585 700 740 544 b 392 3 740 160 585 3 b 43 351 200 3 43 160 b 43 353 43 351 43 353 l 43 975 b 113 1043 43 1013 74 1043 b 181 975 150 1043 181 1013 l 181 629 b 392 700 239 674 313 700 m 392 140 b 603 351 508 140 603 236 b 392 563 603 468 508 563 b 181 353 275 563 181 468 l 181 351 b 181 351 181 351 181 351 b 392 140 181 235 275 140 "},"c":{"ha":738,"x_min":0,"x_max":0,"o":"m 383 -1 b 36 347 192 -1 36 156 b 383 696 36 540 192 696 b 686 522 508 696 624 629 b 661 428 706 489 693 447 b 567 453 628 410 586 421 b 383 558 529 518 460 558 b 172 347 268 558 172 464 b 383 136 172 232 268 136 b 561 233 456 136 522 172 b 657 254 582 265 625 274 b 676 158 689 233 697 190 b 383 -1 613 58 503 -1 "},"d":{"ha":778,"x_min":0,"x_max":0,"o":"m 386 700 b 597 629 465 700 539 674 l 597 975 b 665 1043 597 1013 628 1043 b 735 975 704 1043 735 1013 l 735 353 b 735 351 735 353 735 351 b 386 3 735 160 578 3 b 38 351 193 3 38 160 b 386 700 38 544 193 700 m 386 140 b 597 351 503 140 597 235 b 597 351 597 351 597 351 l 597 353 b 386 563 597 468 503 563 b 175 351 269 563 175 468 b 386 140 175 236 269 140 "},"e":{"ha":713,"x_min":0,"x_max":0,"o":"m 357 697 b 706 349 525 697 706 575 b 636 281 706 311 675 281 l 157 281 b 357 138 186 197 264 138 b 513 183 389 138 446 140 b 604 151 544 204 588 185 b 571 60 621 117 603 81 b 357 0 479 -1 408 0 b 8 349 164 0 8 157 b 357 697 8 542 164 697 m 357 560 b 157 418 264 560 186 500 l 558 418 b 357 560 529 515 440 560 "},"f":{"ha":492,"x_min":0,"x_max":0,"o":"m 450 697 b 519 629 489 697 519 667 b 450 560 519 590 489 560 l 328 560 l 328 69 b 258 0 328 31 297 0 b 190 69 221 0 190 31 l 190 560 l 114 560 b 46 629 76 560 46 590 b 114 697 46 667 76 697 l 190 697 b 292 953 189 796 225 886 b 422 1035 329 990 372 1018 b 510 993 457 1049 497 1029 b 468 906 522 958 504 918 b 389 856 439 896 413 879 b 328 697 347 814 328 760 l 450 697 "},"g":{"ha":769,"x_min":0,"x_max":0,"o":"m 733 349 b 733 0 733 349 733 349 b 385 -349 733 -192 576 -349 b 71 -153 250 -349 131 -274 b 103 -61 54 -118 68 -78 b 194 -92 136 -44 178 -58 b 385 -211 231 -165 303 -211 b 596 -4 500 -211 593 -118 b 596 72 596 -3 596 -1 b 385 0 536 28 464 0 b 36 349 192 0 36 157 b 385 697 36 542 192 697 b 733 349 576 697 733 542 m 385 138 b 596 349 500 138 596 233 b 385 560 596 465 500 560 b 174 349 268 560 174 465 b 385 138 174 233 268 138 "},"h":{"ha":697,"x_min":0,"x_max":0,"o":"m 349 697 b 656 392 518 697 656 560 l 656 69 b 586 0 656 31 624 0 b 518 69 549 0 518 31 l 518 392 b 349 560 518 485 442 560 b 181 392 256 560 181 485 l 181 69 b 111 0 181 31 150 0 b 43 69 74 0 43 31 l 43 974 b 111 1042 43 1011 74 1042 b 181 974 150 1042 181 1011 l 181 647 b 349 697 229 679 286 697 "},"i":{"ha":224,"x_min":0,"x_max":0,"o":"m 113 -1 b 43 68 74 -1 43 29 l 43 628 b 113 696 43 665 74 696 b 181 628 150 696 181 665 l 181 68 b 113 -1 181 29 150 -1 m 113 835 b 64 854 94 835 76 842 b 43 903 51 867 43 885 b 64 951 43 921 51 939 b 113 972 76 964 94 972 b 161 951 131 972 149 964 b 181 903 174 939 181 921 b 161 854 181 885 174 867 b 113 835 149 842 131 835 "},"j":{"ha":224,"x_min":0,"x_max":0,"o":"m 111 694 b 181 626 150 694 181 664 l 181 -14 b 181 -15 181 -14 181 -14 b 78 -265 181 -110 144 -199 b -51 -347 42 -301 -3 -329 b -75 -351 -58 -350 -67 -351 b -139 -306 -103 -351 -129 -333 b -97 -218 -151 -269 -133 -231 b -19 -168 -68 -207 -42 -190 b 43 -15 22 -126 44 -72 b 43 -11 43 -14 43 -12 l 43 626 b 111 694 43 664 74 694 m 111 833 b 63 853 93 833 76 840 b 43 901 50 865 43 883 b 63 950 43 919 50 938 b 111 971 76 963 93 971 b 160 950 129 971 147 963 b 181 901 174 938 181 919 b 160 853 181 883 174 865 b 111 833 147 840 129 833 "},"k":{"ha":622,"x_min":0,"x_max":0,"o":"m 599 115 b 589 19 622 86 618 43 b 546 3 576 8 561 3 b 493 28 525 3 506 11 l 229 344 l 186 315 l 186 72 b 117 3 186 33 154 3 b 49 72 79 3 49 33 l 49 351 b 49 351 49 351 49 351 l 49 972 b 117 1040 49 1010 79 1040 b 186 972 154 1040 186 1010 l 186 478 l 501 685 b 599 676 531 708 574 706 b 589 579 622 647 618 603 l 346 419 l 599 115 "},"l":{"ha":224,"x_min":0,"x_max":0,"o":"m 113 -1 b 43 68 74 -1 43 29 l 43 972 b 113 1040 43 1010 74 1040 b 181 972 150 1040 181 1010 l 181 68 b 113 -1 181 29 150 -1 "},"m":{"ha":1063,"x_min":0,"x_max":0,"o":"m 1021 417 b 1019 411 1021 414 1021 413 b 1021 404 1021 408 1021 407 l 1021 67 b 951 -3 1021 28 989 -3 b 883 67 914 -3 883 28 l 883 404 b 883 411 883 407 883 408 b 883 417 883 413 883 414 b 742 557 883 494 819 557 b 600 417 664 557 600 494 l 600 67 b 532 -3 600 28 569 -3 b 463 67 494 -3 463 28 l 463 417 b 322 557 463 494 400 557 b 181 417 244 557 181 494 l 181 67 b 113 -3 181 28 150 -3 b 43 67 74 -3 43 28 l 43 417 b 322 694 43 569 168 694 b 532 599 406 694 481 658 b 742 694 583 658 658 694 b 1021 417 896 694 1021 569 "},"n":{"ha":769,"x_min":0,"x_max":0,"o":"m 385 697 b 733 349 576 697 733 542 l 733 69 b 664 0 733 31 703 0 b 596 69 626 0 596 31 l 596 349 b 385 560 596 465 501 560 b 174 349 268 560 174 465 l 174 69 b 104 0 174 31 143 0 b 36 69 67 0 36 31 l 36 349 b 385 697 36 542 193 697 "},"o":{"ha":769,"x_min":0,"x_max":0,"o":"m 385 0 b 36 349 193 0 36 157 b 385 697 36 542 193 697 b 733 349 578 697 733 542 b 385 0 733 157 578 0 m 385 560 b 174 349 268 560 174 465 b 385 138 174 233 268 138 b 596 349 501 138 596 233 b 385 560 596 465 501 560 "},"p":{"ha":767,"x_min":0,"x_max":0,"o":"m 383 -6 b 172 65 304 -6 231 21 l 172 -281 b 104 -349 172 -318 142 -349 b 35 -281 65 -349 35 -318 l 35 342 b 35 343 35 342 35 343 b 383 692 35 535 192 692 b 732 343 576 692 732 535 b 383 -6 732 150 576 -6 m 383 554 b 172 343 267 554 172 460 b 172 343 172 343 172 343 l 172 342 b 383 132 172 226 267 132 b 594 343 500 132 594 226 b 383 554 594 458 500 554 "},"q":{"ha":767,"x_min":0,"x_max":0,"o":"m 383 -6 b 35 343 190 -6 35 150 b 383 692 35 535 190 692 b 732 343 575 692 732 535 b 732 342 732 343 732 342 l 732 -281 b 663 -349 732 -318 701 -349 b 594 -281 625 -349 594 -318 l 594 65 b 383 -6 536 21 463 -6 m 383 554 b 172 343 267 554 172 458 b 383 132 172 226 267 132 b 594 342 500 132 594 226 l 594 343 b 594 343 594 343 594 343 b 383 554 594 460 500 554 "}," ":{"ha":431,"x_min":0,"x_max":0,"o":""},"r":{"ha":404,"x_min":0,"x_max":0,"o":"m 385 696 b 454 628 424 696 454 665 b 385 558 454 590 424 558 b 174 347 268 558 174 464 l 174 68 b 106 -1 174 31 143 -1 b 36 68 67 -1 36 31 l 36 347 b 385 696 36 540 193 696 "},"s":{"ha":481,"x_min":0,"x_max":0,"o":"m 388 356 b 449 208 428 315 449 264 b 240 -1 449 93 356 -1 b 36 150 142 -1 63 69 b 89 232 24 186 53 224 b 171 178 126 239 153 213 b 240 136 190 142 207 136 b 311 208 279 136 311 168 b 240 279 311 247 279 279 b 93 340 185 279 132 301 b 32 488 53 379 32 432 b 240 696 32 603 125 696 b 440 551 338 696 426 629 b 388 469 447 514 425 476 b 306 521 350 461 318 486 b 240 558 297 543 274 558 b 169 488 201 558 169 526 b 240 417 169 449 201 417 b 388 356 296 417 349 394 "},"t":{"ha":476,"x_min":0,"x_max":0,"o":"m 400 696 b 469 628 439 696 469 665 b 400 558 469 590 439 558 l 301 558 l 301 68 b 232 -1 301 31 271 -1 b 164 68 194 -1 164 31 l 164 558 l 64 558 b -4 628 26 558 -4 590 b 64 696 -4 665 26 696 l 164 696 l 164 974 b 232 1042 164 1011 194 1042 b 301 974 271 1042 301 1011 l 301 696 l 400 696 "},"u":{"ha":649,"x_min":0,"x_max":0,"o":"m 538 696 b 606 628 575 696 606 665 l 606 279 b 606 278 606 279 606 278 b 324 -1 604 124 479 -1 b 43 278 169 -1 44 124 b 43 279 43 278 43 279 l 43 628 b 111 696 43 665 74 696 b 181 628 150 696 181 665 l 181 281 b 324 136 181 201 244 136 b 468 281 404 136 468 201 l 468 628 b 538 696 468 665 499 696 "},"v":{"ha":560,"x_min":0,"x_max":0,"o":"m 515 690 b 556 601 551 678 569 638 l 347 46 b 282 0 336 18 310 0 b 281 0 281 0 281 0 b 215 46 251 0 225 19 l 7 601 b 47 690 -7 638 11 678 b 136 650 83 704 122 686 l 282 263 l 426 650 b 515 690 440 686 479 704 "},"w":{"ha":982,"x_min":0,"x_max":0,"o":"m 935 690 b 975 601 969 678 988 638 l 767 46 b 700 0 756 19 729 0 b 700 0 700 0 700 0 b 635 46 671 0 644 18 l 490 431 l 347 46 b 281 0 336 19 310 0 b 281 0 281 0 281 0 b 215 46 251 0 225 18 l 7 601 b 47 690 -7 638 11 678 b 135 650 82 704 122 686 l 281 263 l 425 647 b 467 690 432 667 446 683 b 488 694 474 693 481 694 b 488 694 488 694 488 694 b 490 694 489 694 490 694 b 492 694 492 694 492 694 b 494 694 493 694 493 694 b 496 694 494 694 494 694 b 497 694 496 694 497 694 b 499 694 499 694 499 694 b 500 694 500 694 500 694 b 503 694 501 694 501 694 b 504 693 503 694 503 693 b 506 693 504 693 506 693 b 507 693 507 693 507 693 b 510 692 508 693 508 693 b 510 692 510 692 510 692 b 513 692 511 692 513 692 b 513 692 513 692 513 692 b 515 690 514 690 514 690 b 556 647 535 683 550 667 l 700 263 l 846 650 b 935 690 860 686 899 704 "},"x":{"ha":572,"x_min":0,"x_max":0,"o":"m 376 349 l 560 111 b 547 15 583 81 578 38 b 506 0 535 6 521 0 b 451 26 485 0 465 10 l 289 236 l 126 26 b 72 0 113 10 93 0 b 31 15 57 0 43 6 b 18 111 0 38 -6 81 l 201 349 l 18 586 b 31 683 -6 617 0 660 b 126 671 60 707 103 701 l 289 461 l 451 671 b 547 683 475 701 518 707 b 560 586 578 660 583 617 l 376 349 "},"y":{"ha":632,"x_min":0,"x_max":0,"o":"m 526 692 b 596 624 565 692 596 661 l 596 -61 b 308 -347 596 -218 467 -347 b 51 -186 199 -347 100 -285 b 83 -94 35 -153 49 -111 b 174 -126 117 -78 158 -93 b 308 -210 200 -178 251 -210 b 458 -61 392 -210 458 -143 l 458 39 b 315 0 417 14 368 0 b 36 276 163 0 38 124 b 36 278 36 278 36 278 l 36 624 b 104 692 36 661 67 692 b 172 624 142 692 172 661 l 172 279 b 315 136 172 200 238 136 b 458 279 394 136 458 200 l 458 624 b 526 692 458 661 489 692 "},"z":{"ha":628,"x_min":0,"x_max":0,"o":"m 532 138 b 600 69 569 138 600 107 b 532 0 600 32 569 0 b 532 0 532 0 532 0 l 100 0 b 38 39 74 0 49 15 b 44 113 25 64 28 92 l 392 560 l 97 560 b 29 629 60 560 29 592 b 97 697 29 667 60 697 l 529 697 b 592 658 556 697 581 683 b 585 586 604 635 601 607 l 238 138 l 532 138 "},"`":{"ha":247,"x_min":0,"x_max":0,"o":"m 222 853 b 125 853 196 825 153 825 l 17 961 b 17 1058 -10 988 -10 1031 b 114 1058 43 1085 88 1085 l 222 950 b 222 853 250 922 250 879 "},"à":{"ha":765,"x_min":0,"x_max":0,"o":"m 388 694 b 729 343 583 694 729 539 l 729 71 b 660 1 729 31 700 1 b 593 71 632 1 593 31 l 593 71 b 388 1 533 21 467 1 b 36 343 192 1 36 147 b 388 694 36 539 192 694 m 388 138 b 593 343 504 138 593 226 b 388 558 593 460 504 558 b 172 343 271 558 172 460 b 388 138 172 226 271 138 m 485 853 b 388 853 458 825 415 825 l 279 961 b 279 1058 253 988 253 1031 b 376 1058 306 1085 350 1085 l 485 950 b 485 853 513 922 513 879 "},"è":{"ha":771,"x_min":0,"x_max":0,"o":"m 385 697 b 733 349 553 697 733 575 b 664 281 733 311 703 281 l 185 281 b 385 138 214 197 292 138 b 540 183 417 138 474 140 b 632 151 572 204 615 185 b 599 60 649 117 631 81 b 385 0 507 -1 436 0 b 36 349 192 0 36 157 b 385 697 36 542 192 697 m 385 560 b 185 418 292 560 214 500 l 586 418 b 385 560 557 515 468 560 m 488 853 b 390 853 461 825 418 825 l 282 961 b 282 1058 256 988 256 1031 b 379 1058 308 1085 353 1085 l 488 950 b 488 853 515 922 515 879 "},"ò":{"ha":769,"x_min":0,"x_max":0,"o":"m 385 0 b 733 349 578 0 733 157 b 385 697 733 542 578 697 b 36 349 193 697 36 542 b 385 0 36 157 193 0 m 385 560 b 596 349 501 560 596 465 b 385 138 596 233 501 138 b 174 349 268 138 174 233 b 385 560 174 465 268 560 m 486 853 b 389 853 460 825 417 825 l 281 961 b 281 1058 254 988 254 1031 b 378 1058 307 1085 351 1085 l 486 950 b 486 853 514 922 514 879 "},"ù":{"ha":649,"x_min":0,"x_max":0,"o":"m 538 696 b 606 628 575 696 606 665 l 606 279 b 606 278 606 279 606 278 b 324 -1 604 124 479 -1 b 43 278 169 -1 44 124 b 43 279 43 278 43 279 l 43 628 b 111 696 43 665 74 696 b 181 628 150 696 181 665 l 181 281 b 324 136 181 201 244 136 b 468 281 404 136 468 201 l 468 628 b 538 696 468 665 499 696 m 426 853 b 329 853 400 825 357 825 l 221 961 b 221 1058 194 988 194 1031 b 318 1058 247 1085 292 1085 l 426 950 b 426 853 454 922 454 879 "},"¨":{"ha":417,"x_min":0,"x_max":0,"o":"m 69 836 b 21 857 51 836 35 843 b 1 906 8 869 1 888 b 21 954 1 924 8 940 b 69 974 35 967 51 974 b 118 954 88 974 106 967 b 139 906 132 940 139 924 b 118 857 139 888 132 869 b 69 836 106 843 88 836 m 344 836 b 296 857 326 836 310 843 b 276 906 283 869 276 888 b 296 954 276 924 283 940 b 344 974 310 967 326 974 b 393 954 363 974 381 967 b 414 906 407 940 414 924 b 393 857 414 888 407 869 b 344 836 381 843 363 836 "},"ä":{"ha":765,"x_min":0,"x_max":0,"o":"m 388 694 b 729 343 583 694 729 539 l 729 71 b 660 1 729 31 700 1 b 593 71 632 1 593 31 l 593 71 b 388 1 533 21 467 1 b 36 343 192 1 36 147 b 388 694 36 539 192 694 m 388 138 b 593 343 504 138 593 226 b 388 558 593 460 504 558 b 172 343 271 558 172 460 b 388 138 172 226 271 138 m 244 836 b 196 857 226 836 210 843 b 176 906 183 869 176 888 b 196 954 176 924 183 940 b 244 974 210 967 226 974 b 293 954 263 974 281 967 b 314 906 307 940 314 924 b 293 857 314 888 307 869 b 244 836 281 843 263 836 m 519 836 b 471 857 501 836 485 843 b 451 906 458 869 451 888 b 471 954 451 924 458 940 b 519 974 485 967 501 974 b 568 954 538 974 556 967 b 589 906 582 940 589 924 b 568 857 589 888 582 869 b 519 836 556 843 538 836 "},"ë":{"ha":771,"x_min":0,"x_max":0,"o":"m 385 697 b 733 349 553 697 733 575 b 664 281 733 311 703 281 l 185 281 b 385 138 214 197 292 138 b 540 183 417 138 474 140 b 632 151 572 204 615 185 b 599 60 649 117 631 81 b 385 0 507 -1 436 0 b 36 349 192 0 36 157 b 385 697 36 542 192 697 m 385 560 b 185 418 292 560 214 500 l 586 418 b 385 560 557 515 468 560 m 247 836 b 199 857 229 836 213 843 b 179 906 186 869 179 888 b 199 954 179 924 186 940 b 247 974 213 967 229 974 b 296 954 265 974 283 967 b 317 906 310 940 317 924 b 296 857 317 888 310 869 b 247 836 283 843 265 836 m 522 836 b 474 857 504 836 488 843 b 454 906 461 869 454 888 b 474 954 454 924 461 940 b 522 974 488 967 504 974 b 571 954 540 974 558 967 b 592 906 585 940 592 924 b 571 857 592 888 585 869 b 522 836 558 843 540 836 "},"ï":{"ha":224,"x_min":0,"x_max":0,"o":"m 113 -1 b 43 68 74 -1 43 29 l 43 628 b 113 696 43 665 74 696 b 181 628 150 696 181 665 l 181 68 b 113 -1 181 29 150 -1 m -26 836 b -75 857 -44 836 -61 843 b -94 906 -87 869 -94 888 b -75 954 -94 924 -87 940 b -26 974 -61 967 -44 974 b 22 954 -8 974 10 967 b 43 906 36 940 43 924 b 22 857 43 888 36 869 b -26 836 10 843 -8 836 m 249 836 b 200 857 231 836 214 843 b 181 906 188 869 181 888 b 200 954 181 924 188 940 b 249 974 214 967 231 974 b 297 954 267 974 285 967 b 318 906 311 940 318 924 b 297 857 318 888 311 869 b 249 836 285 843 267 836 "},"ö":{"ha":769,"x_min":0,"x_max":0,"o":"m 385 0 b 36 349 193 0 36 157 b 385 697 36 542 193 697 b 733 349 578 697 733 542 b 385 0 733 157 578 0 m 385 560 b 174 349 268 560 174 465 b 385 138 174 233 268 138 b 596 349 501 138 596 233 b 385 560 596 465 501 560 m 246 836 b 197 857 228 836 211 843 b 178 906 185 869 178 888 b 197 954 178 924 185 940 b 246 974 211 967 228 974 b 294 954 264 974 282 967 b 315 906 308 940 315 924 b 294 857 315 888 308 869 b 246 836 282 843 264 836 m 521 836 b 472 857 503 836 486 843 b 453 906 460 869 453 888 b 472 954 453 924 460 940 b 521 974 486 967 503 974 b 569 954 539 974 557 967 b 590 906 583 940 590 924 b 569 857 590 888 583 869 b 521 836 557 843 539 836 "},"ü":{"ha":649,"x_min":0,"x_max":0,"o":"m 538 696 b 606 628 575 696 606 665 l 606 279 b 606 278 606 279 606 278 b 324 -1 604 124 479 -1 b 43 278 169 -1 44 124 b 43 279 43 278 43 279 l 43 628 b 111 696 43 665 74 696 b 181 628 150 696 181 665 l 181 281 b 324 136 181 201 244 136 b 468 281 404 136 468 201 l 468 628 b 538 696 468 665 499 696 m 186 836 b 138 857 168 836 151 843 b 118 906 125 869 118 888 b 138 954 118 924 125 940 b 186 974 151 967 168 974 b 235 954 204 974 222 967 b 256 906 249 940 256 924 b 235 857 256 888 249 869 b 186 836 222 843 204 836 m 461 836 b 413 857 443 836 426 843 b 393 906 400 869 393 888 b 413 954 393 924 400 940 b 461 974 426 967 443 974 b 510 954 479 974 497 967 b 531 906 524 940 531 924 b 510 857 531 888 524 869 b 461 836 497 843 479 836 "},"ì":{"ha":224,"x_min":0,"x_max":0,"o":"m 113 -1 b 181 68 150 -1 181 29 l 181 628 b 113 696 181 665 150 696 b 43 628 74 696 43 665 l 43 68 b 113 -1 43 29 74 -1 m 214 853 b 117 853 188 825 144 825 l 8 961 b 8 1058 -18 988 -18 1031 b 106 1058 35 1085 79 1085 l 214 950 b 214 853 242 922 242 879 "},"´":{"ha":243,"x_min":0,"x_max":0,"o":"m 18 853 b 18 950 -10 879 -10 922 l 126 1058 b 224 1058 153 1085 197 1085 b 224 961 250 1031 250 988 l 115 853 b 18 853 88 825 44 825 "},"í":{"ha":224,"x_min":0,"x_max":0,"o":"m 113 -1 b 43 68 74 -1 43 29 l 43 628 b 113 696 43 665 74 696 b 181 628 150 696 181 665 l 181 68 b 113 -1 181 29 150 -1 m 10 853 b 10 950 -18 879 -18 922 l 118 1058 b 215 1058 144 1085 189 1085 b 215 961 242 1031 242 988 l 107 853 b 10 853 79 825 36 825 "},"é":{"ha":771,"x_min":0,"x_max":0,"o":"m 385 697 b 733 349 553 697 733 575 b 664 281 733 311 703 281 l 185 281 b 385 138 214 197 292 138 b 540 183 417 138 474 140 b 632 151 572 204 615 185 b 599 60 649 117 631 81 b 385 0 507 -1 436 0 b 36 349 192 0 36 157 b 385 697 36 542 192 697 m 385 560 b 185 418 292 560 214 500 l 586 418 b 385 560 557 515 468 560 m 283 853 b 283 950 256 879 256 922 l 392 1058 b 489 1058 418 1085 463 1085 b 489 961 515 1031 515 988 l 381 853 b 283 853 353 825 310 825 "},"á":{"ha":765,"x_min":0,"x_max":0,"o":"m 388 694 b 729 343 583 694 729 539 l 729 71 b 660 1 729 31 700 1 b 593 71 632 1 593 31 l 593 71 b 388 1 533 21 467 1 b 36 343 192 1 36 147 b 388 694 36 539 192 694 m 388 138 b 593 343 504 138 593 226 b 388 558 593 460 504 558 b 172 343 271 558 172 460 b 388 138 172 226 271 138 m 281 853 b 281 950 253 879 253 922 l 389 1058 b 486 1058 415 1085 460 1085 b 486 961 513 1031 513 988 l 378 853 b 281 853 350 825 307 825 "},"ó":{"ha":769,"x_min":0,"x_max":0,"o":"m 385 0 b 36 349 193 0 36 157 b 385 697 36 542 193 697 b 733 349 578 697 733 542 b 385 0 733 157 578 0 m 385 560 b 174 349 268 560 174 465 b 385 138 174 233 268 138 b 596 349 501 138 596 233 b 385 560 596 465 501 560 m 282 853 b 282 950 254 879 254 922 l 390 1058 b 488 1058 417 1085 461 1085 b 488 961 514 1031 514 988 l 379 853 b 282 853 351 825 308 825 "},"ú":{"ha":649,"x_min":0,"x_max":0,"o":"m 538 696 b 606 628 575 696 606 665 l 606 279 b 606 278 606 279 606 278 b 324 -1 604 124 479 -1 b 43 278 169 -1 44 124 b 43 279 43 278 43 279 l 43 628 b 111 696 43 665 74 696 b 181 628 150 696 181 665 l 181 281 b 324 136 181 201 244 136 b 468 281 404 136 468 201 l 468 628 b 538 696 468 665 499 696 m 222 853 b 222 950 194 879 194 922 l 331 1058 b 428 1058 357 1085 401 1085 b 428 961 454 1031 454 988 l 319 853 b 222 853 292 825 249 825 "},"ý":{"ha":632,"x_min":0,"x_max":0,"o":"m 526 692 b 596 624 565 692 596 661 l 596 -61 b 308 -347 596 -218 467 -347 b 51 -186 199 -347 100 -285 b 83 -94 35 -153 49 -111 b 174 -126 117 -78 158 -93 b 308 -210 200 -178 251 -210 b 458 -61 392 -210 458 -143 l 458 39 b 315 0 417 14 368 0 b 36 276 163 0 38 124 b 36 278 36 278 36 278 l 36 624 b 104 692 36 661 67 692 b 172 624 142 692 172 661 l 172 279 b 315 136 172 200 238 136 b 458 279 394 136 458 200 l 458 624 b 526 692 458 661 489 692 m 214 853 b 214 950 186 879 186 922 l 322 1058 b 419 1058 349 1085 393 1085 b 419 961 446 1031 446 988 l 311 853 b 214 853 283 825 240 825 "},"ÿ":{"ha":632,"x_min":0,"x_max":0,"o":"m 526 692 b 596 624 565 692 596 661 l 596 -61 b 308 -347 596 -218 467 -347 b 51 -186 199 -347 100 -285 b 83 -94 35 -153 49 -111 b 174 -126 117 -78 158 -93 b 308 -210 200 -178 251 -210 b 458 -61 392 -210 458 -143 l 458 39 b 315 0 417 14 368 0 b 36 276 163 0 38 124 b 36 278 36 278 36 278 l 36 624 b 104 692 36 661 67 692 b 172 624 142 692 172 661 l 172 279 b 315 136 172 200 238 136 b 458 279 394 136 458 200 l 458 624 b 526 692 458 661 489 692 m 178 836 b 129 857 160 836 143 843 b 110 906 117 869 110 888 b 129 954 110 924 117 940 b 178 974 143 967 160 974 b 226 954 196 974 214 967 b 247 906 240 940 247 924 b 226 857 247 888 240 869 b 178 836 214 843 196 836 m 453 836 b 404 857 435 836 418 843 b 385 906 392 869 385 888 b 404 954 385 924 392 940 b 453 974 418 967 435 974 b 501 954 471 974 489 967 b 522 906 515 940 522 924 b 501 857 522 888 515 869 b 453 836 489 843 471 836 "},"…":{"ha":753,"x_min":0,"x_max":0,"o":"m 101 3 b 53 24 83 3 67 10 b 33 72 40 36 33 54 b 53 121 33 90 40 107 b 101 140 67 133 83 140 b 150 121 119 140 138 133 b 171 72 164 107 171 90 b 150 24 171 54 164 36 b 101 3 138 10 119 3 m 376 3 b 328 24 358 3 342 10 b 308 72 315 36 308 54 b 328 121 308 90 315 107 b 376 140 342 133 358 140 b 425 121 394 140 413 133 b 446 72 439 107 446 90 b 425 24 446 54 439 36 b 376 3 413 10 394 3 m 649 3 b 600 24 631 3 614 10 b 581 72 588 36 581 54 b 600 121 581 90 588 107 b 649 140 614 133 631 140 b 697 121 667 140 685 133 b 718 72 711 107 718 90 b 697 24 718 54 711 36 b 649 3 685 10 667 3 "},"•":{"ha":229,"x_min":0,"x_max":0,"o":"m 115 272 b 67 293 97 272 81 279 b 47 342 54 306 47 324 b 67 390 47 360 54 376 b 115 410 81 403 97 410 b 164 390 133 410 151 403 b 185 342 178 376 185 360 b 164 293 185 324 178 306 b 115 272 151 279 133 272 "},"¢":{"ha":738,"x_min":0,"x_max":0,"o":"m 378 -128 b 308 -58 339 -128 308 -97 l 308 7 b 36 347 153 42 36 181 b 308 688 36 514 153 653 l 308 753 b 378 821 308 790 339 821 b 446 753 415 821 446 790 l 446 690 b 686 522 546 672 633 611 b 661 428 706 489 693 447 b 567 453 628 410 586 421 b 446 549 539 499 496 533 l 446 144 b 561 233 493 160 533 190 b 657 254 582 265 625 274 b 676 158 689 233 697 190 b 446 4 624 75 540 21 l 446 -58 b 378 -128 446 -97 415 -128 m 172 347 b 308 150 172 258 229 181 l 308 544 b 172 347 229 514 172 438 "},"ﬁ":{"ha":569,"x_min":0,"x_max":0,"o":"m 547 629 b 547 629 547 629 547 629 l 547 69 b 478 1 547 32 517 1 b 410 69 440 1 410 32 l 410 561 l 299 561 l 299 69 b 229 1 299 32 268 1 b 161 69 192 1 161 32 l 161 561 l 85 561 b 17 629 47 561 17 592 b 85 699 17 668 47 699 l 161 699 l 161 772 b 161 778 161 774 161 776 b 161 782 161 779 161 781 b 263 1035 160 878 196 967 b 393 1117 300 1072 343 1099 b 481 1075 428 1129 468 1111 b 439 988 493 1039 474 1000 b 360 938 408 976 382 960 b 299 785 319 897 297 842 b 299 778 299 782 299 779 b 299 772 299 775 299 774 l 299 699 l 478 699 b 478 699 478 699 478 699 b 478 699 478 699 478 699 l 478 699 b 547 629 517 699 547 668 "},"ﬂ":{"ha":636,"x_min":0,"x_max":0,"o":"m 531 1039 b 594 969 567 1036 594 1007 l 594 65 b 526 -3 594 28 564 -3 b 457 65 488 -3 457 28 l 457 904 b 382 856 429 893 404 878 b 321 694 340 814 321 754 l 363 694 b 432 625 401 694 432 664 b 363 557 432 588 401 557 l 321 557 l 321 68 b 251 0 321 31 290 0 b 183 68 214 0 183 31 l 183 557 l 107 557 b 39 625 69 557 39 588 b 107 694 39 664 69 694 l 183 694 b 285 953 183 788 214 879 b 401 1029 322 990 351 1010 b 531 1039 426 1039 450 1042 l 531 1039 "},"ž":{"ha":628,"x_min":0,"x_max":0,"o":"m 469 1035 b 469 938 496 1007 496 964 b 363 829 368 835 365 832 b 313 808 349 815 331 808 b 264 829 296 808 278 815 b 157 938 261 832 258 835 b 157 1035 131 964 131 1007 b 254 1035 183 1061 228 1061 l 313 975 l 372 1035 b 469 1035 399 1061 443 1061 m 532 138 b 600 69 569 138 600 107 b 532 0 600 32 569 0 b 532 0 532 0 532 0 l 100 0 b 38 39 74 0 49 15 b 44 113 25 64 28 92 l 392 560 l 97 560 b 29 629 60 560 29 592 b 97 697 29 667 60 697 l 529 697 b 592 658 556 697 581 683 b 585 586 604 635 601 607 l 238 138 l 532 138 "},"ˆ":{"ha":361,"x_min":0,"x_max":0,"o":"m 333 835 b 236 835 307 808 263 808 l 176 894 l 118 835 b 21 835 92 808 47 808 b 21 932 -6 863 -6 906 b 128 1040 122 1035 125 1038 b 176 1061 142 1054 160 1061 b 226 1040 194 1061 213 1054 b 333 932 229 1038 232 1035 b 333 835 360 906 360 863 "},":":{"ha":201,"x_min":0,"x_max":0,"o":"m 31 475 b 51 524 31 493 38 510 b 100 543 64 536 82 543 b 149 524 118 543 135 536 b 168 475 161 510 168 493 b 149 426 168 457 161 439 b 100 406 135 413 118 406 b 51 426 82 406 64 413 b 31 475 38 439 31 457 m 31 200 b 51 249 31 218 38 235 b 100 268 64 261 82 268 b 149 249 118 268 135 261 b 168 200 161 235 168 218 b 149 151 168 182 161 164 b 100 131 135 138 118 131 b 51 151 82 131 64 138 b 31 200 38 164 31 182 "},";":{"ha":299,"x_min":0,"x_max":0,"o":"m 131 475 b 151 524 131 493 138 510 b 200 543 164 536 182 543 b 249 524 218 543 235 536 b 268 475 261 510 268 493 b 249 426 268 457 261 439 b 200 406 235 413 218 406 b 151 426 182 406 164 413 b 131 475 138 439 131 457 m 43 42 b 47 135 15 68 19 107 l 156 243 b 249 247 182 269 222 274 b 244 153 275 219 271 179 l 136 44 b 43 42 108 17 69 14 "},"<":{"ha":492,"x_min":0,"x_max":0,"o":"m 436 19 b 339 19 408 -7 365 -7 b 57 290 236 121 60 288 b 36 340 43 304 36 322 b 57 389 36 357 43 375 b 336 671 60 392 233 569 b 433 671 363 697 406 697 b 433 574 460 644 460 600 l 203 340 l 436 117 b 436 19 463 90 463 46 "},">":{"ha":510,"x_min":0,"x_max":0,"o":"m 63 19 b 63 117 36 46 36 90 l 296 340 l 65 574 b 65 671 39 600 39 644 b 163 671 93 697 136 697 b 442 389 265 569 439 392 b 463 340 456 375 463 357 b 442 290 463 322 456 304 b 160 19 439 288 263 121 b 63 19 133 -7 90 -7 "},"=":{"ha":761,"x_min":0,"x_max":0,"o":"m 46 475 b 115 544 46 514 76 544 l 640 544 b 708 475 678 544 708 514 b 640 407 708 438 678 407 l 115 407 b 46 475 76 407 46 438 m 46 196 b 115 265 46 235 76 265 l 640 265 b 708 196 678 265 708 235 b 640 128 708 158 678 128 l 115 128 b 46 196 76 128 46 158 "},"“":{"ha":403,"x_min":0,"x_max":0,"o":"m 88 688 b 25 757 50 688 25 718 l 25 910 b 88 979 25 947 51 979 b 151 908 126 978 151 946 l 151 756 b 88 688 151 717 126 688 m 303 688 b 240 757 265 688 240 718 l 240 910 b 303 979 240 947 267 979 b 367 908 342 978 367 946 l 367 756 b 303 688 367 717 342 688 "},"‘":{"ha":179,"x_min":0,"x_max":0,"o":"m 89 688 b 26 757 51 688 26 718 l 26 910 b 89 979 26 947 53 979 b 153 908 128 978 153 946 l 153 756 b 89 688 153 717 128 688 "},"’":{"ha":175,"x_min":0,"x_max":0,"o":"m 86 688 b 24 757 49 688 24 718 l 24 910 b 86 979 24 947 50 979 b 150 908 125 978 150 946 l 150 756 b 86 688 150 717 125 688 "},"”":{"ha":411,"x_min":0,"x_max":0,"o":"m 100 688 b 38 757 63 688 38 718 l 38 910 b 100 979 38 947 64 979 b 164 908 139 978 164 946 l 164 756 b 100 688 164 717 139 688 m 315 688 b 253 757 278 688 253 718 l 253 910 b 315 979 253 947 279 979 b 379 908 354 978 379 946 l 379 756 b 315 688 379 717 354 688 "},"–":{"ha":910,"x_min":0,"x_max":0,"o":"m 47 336 b 117 406 47 375 78 406 l 793 406 b 861 336 831 406 861 375 b 793 268 861 299 831 268 l 117 268 b 47 336 78 268 47 299 "},"—":{"ha":935,"x_min":0,"x_max":0,"o":"m 46 336 b 115 406 46 375 76 406 l 810 406 b 878 336 847 406 878 375 b 810 268 878 299 847 268 l 115 268 b 46 336 76 268 46 299 "},"−":{"ha":754,"x_min":0,"x_max":0,"o":"m 46 336 b 115 406 46 375 76 406 l 640 406 b 708 336 678 406 708 375 b 640 268 708 299 678 268 l 115 268 b 46 336 76 268 46 299 "},"˜":{"ha":450,"x_min":0,"x_max":0,"o":"m 431 956 b 450 908 442 943 450 926 b 382 840 450 871 419 840 b 346 850 368 840 356 844 b 335 858 342 853 338 856 b 331 863 333 860 332 861 b 329 864 331 863 331 864 b 314 881 324 869 318 875 b 293 896 299 896 297 896 b 274 881 289 896 288 896 b 153 821 253 858 218 821 b 33 881 89 821 54 858 b 26 888 31 883 29 885 b 24 890 25 889 25 889 b 6 936 13 903 6 918 b 74 1004 6 974 36 1004 b 121 985 92 1004 108 997 b 122 983 122 985 122 985 b 133 972 126 979 131 976 b 153 957 149 957 149 957 b 174 972 157 957 158 957 b 293 1032 194 994 229 1032 b 414 972 358 1032 393 994 l 431 956 "},"ã":{"ha":765,"x_min":0,"x_max":0,"o":"m 388 694 b 729 343 583 694 729 539 l 729 71 b 660 1 729 31 700 1 b 593 71 632 1 593 31 l 593 71 b 388 1 533 21 467 1 b 36 343 192 1 36 147 b 388 694 36 539 192 694 m 388 138 b 593 343 504 138 593 226 b 388 558 593 460 504 558 b 172 343 271 558 172 460 b 388 138 172 226 271 138 m 585 956 b 604 908 596 943 604 926 b 536 840 604 871 574 840 b 500 850 522 840 510 844 b 489 858 496 853 492 856 b 485 863 488 860 486 861 b 483 864 485 863 485 864 b 468 881 478 869 472 875 b 447 896 453 896 451 896 b 428 881 443 896 442 896 b 307 821 407 858 372 821 b 188 881 243 821 208 858 b 181 888 185 883 183 885 b 178 890 179 889 179 889 b 160 936 167 903 160 918 b 228 1004 160 974 190 1004 b 275 985 246 1004 263 997 b 276 983 276 985 276 985 b 288 972 281 979 285 976 b 307 957 303 957 303 957 b 328 972 311 957 313 957 b 447 1032 349 994 383 1032 b 568 972 513 1032 547 994 l 585 956 "},"ˇ":{"ha":354,"x_min":0,"x_max":0,"o":"m 333 1035 b 333 938 360 1007 360 964 b 226 829 232 835 229 832 b 176 808 213 815 194 808 b 128 829 160 808 142 815 b 21 938 125 832 122 835 b 21 1035 -6 964 -6 1007 b 118 1035 47 1061 92 1061 l 176 975 l 236 1035 b 333 1035 263 1061 307 1061 "},"ê":{"ha":771,"x_min":0,"x_max":0,"o":"m 385 697 b 733 349 553 697 733 575 b 664 281 733 311 703 281 l 185 281 b 385 138 214 197 292 138 b 540 183 417 138 474 140 b 632 151 572 204 615 185 b 599 60 649 117 631 81 b 385 0 507 -1 436 0 b 36 349 192 0 36 157 b 385 697 36 542 192 697 m 385 560 b 185 418 292 560 214 500 l 586 418 b 385 560 557 515 468 560 m 542 835 b 444 835 515 808 471 808 l 385 894 l 326 835 b 229 835 300 808 256 808 b 229 932 203 863 203 906 b 336 1040 331 1035 333 1038 b 385 1061 350 1054 368 1061 b 435 1040 403 1061 421 1054 b 542 932 438 1038 440 1035 b 542 835 568 906 568 863 "},"ñ":{"ha":769,"x_min":0,"x_max":0,"o":"m 385 697 b 733 349 576 697 733 542 l 733 69 b 664 0 733 31 703 0 b 596 69 626 0 596 31 l 596 349 b 385 560 596 465 501 560 b 174 349 268 560 174 465 l 174 69 b 104 0 174 31 143 0 b 36 69 67 0 36 31 l 36 349 b 385 697 36 542 193 697 m 588 956 b 607 908 599 943 607 926 b 539 840 607 871 576 840 b 503 850 525 840 513 844 b 492 858 499 853 494 856 b 488 863 490 860 489 861 b 486 864 488 863 488 864 b 471 881 481 869 475 875 b 450 896 456 896 454 896 b 431 881 446 896 444 896 b 310 821 410 858 375 821 b 190 881 246 821 211 858 b 183 888 188 883 186 885 b 181 890 182 889 182 889 b 163 936 169 903 163 918 b 231 1004 163 974 193 1004 b 278 985 249 1004 265 997 b 279 983 279 985 279 985 b 290 972 283 979 288 976 b 310 957 306 957 306 957 b 331 972 314 957 315 957 b 450 1032 351 994 386 1032 b 571 972 515 1032 550 994 l 588 956 "},"ô":{"ha":769,"x_min":0,"x_max":0,"o":"m 385 0 b 36 349 193 0 36 157 b 385 697 36 542 193 697 b 733 349 578 697 733 542 b 385 0 733 157 578 0 m 385 560 b 174 349 268 560 174 465 b 385 138 174 233 268 138 b 596 349 501 138 596 233 b 385 560 596 465 501 560 m 540 835 b 443 835 514 808 469 808 l 383 894 l 325 835 b 228 835 299 808 254 808 b 228 932 201 863 201 906 b 335 1040 329 1035 332 1038 b 383 1061 349 1054 367 1061 b 433 1040 401 1061 419 1054 b 540 932 436 1038 439 1035 b 540 835 567 906 567 863 "},"õ":{"ha":769,"x_min":0,"x_max":0,"o":"m 385 0 b 733 349 578 0 733 157 b 385 697 733 542 578 697 b 36 349 193 697 36 542 b 385 0 36 157 193 0 m 385 560 b 596 349 501 560 596 465 b 385 138 596 233 501 138 b 174 349 268 138 174 233 b 385 560 174 465 268 560 m 588 956 b 607 908 599 943 607 926 b 539 840 607 871 576 840 b 503 850 525 840 513 844 b 492 858 499 853 494 856 b 488 863 490 860 489 861 b 486 864 488 863 488 864 b 471 881 481 869 475 875 b 450 896 456 896 454 896 b 431 881 446 896 444 896 b 310 821 410 858 375 821 b 190 881 246 821 211 858 b 183 888 188 883 186 885 b 181 890 182 889 182 889 b 163 936 169 903 163 918 b 231 1004 163 974 193 1004 b 278 985 249 1004 265 997 b 279 983 279 985 279 985 b 290 972 283 979 288 976 b 310 957 306 957 306 957 b 331 972 314 957 315 957 b 450 1032 351 994 386 1032 b 571 972 515 1032 550 994 l 588 956 "},"û":{"ha":649,"x_min":0,"x_max":0,"o":"m 538 696 b 606 628 575 696 606 665 l 606 279 b 606 278 606 279 606 278 b 324 -1 604 124 479 -1 b 43 278 169 -1 44 124 b 43 279 43 278 43 279 l 43 628 b 111 696 43 665 74 696 b 181 628 150 696 181 665 l 181 281 b 324 136 181 201 244 136 b 468 281 404 136 468 201 l 468 628 b 538 696 468 665 499 696 m 481 835 b 383 835 454 808 410 808 l 324 894 l 265 835 b 168 835 239 808 194 808 b 168 932 142 863 142 906 b 275 1040 269 1035 272 1038 b 324 1061 289 1054 307 1061 b 374 1040 342 1061 360 1054 b 481 932 376 1038 379 1035 b 481 835 507 906 507 863 "},"·":{"ha":235,"x_min":0,"x_max":0,"o":"m 115 0 b 67 21 97 0 81 7 b 47 69 54 33 47 51 b 67 118 47 88 54 104 b 115 138 81 131 97 138 b 164 118 133 138 151 131 b 185 69 178 104 185 88 b 164 21 185 51 178 33 b 115 0 151 7 133 0 "},"_":{"ha":928,"x_min":0,"x_max":0,"o":"m 46 71 b 115 140 46 110 76 140 l 810 140 b 878 71 847 140 878 110 b 810 3 878 33 847 3 l 115 3 b 46 71 76 3 46 33 "},"-":{"ha":754,"x_min":0,"x_max":0,"o":"m 46 336 b 115 406 46 375 76 406 l 640 406 b 708 336 678 406 708 375 b 640 268 708 299 678 268 l 115 268 b 46 336 76 268 46 299 "},".":{"ha":231,"x_min":0,"x_max":0,"o":"m 115 0 b 67 21 97 0 81 7 b 47 69 54 33 47 51 b 67 118 47 88 54 104 b 115 138 81 131 97 138 b 164 118 133 138 151 131 b 185 69 178 104 185 88 b 164 21 185 51 178 33 b 115 0 151 7 133 0 "},",":{"ha":318,"x_min":0,"x_max":0,"o":"m 43 -81 b 47 13 15 -54 19 -15 l 156 121 b 249 125 182 147 222 151 b 244 31 275 97 271 57 l 136 -78 b 43 -81 108 -106 69 -108 "},"+":{"ha":753,"x_min":0,"x_max":0,"o":"m 378 671 b 447 601 417 671 447 640 l 447 406 l 640 406 b 708 336 678 406 708 375 b 640 268 708 299 678 268 l 447 268 l 447 76 b 378 8 447 39 417 8 b 310 76 340 8 310 39 l 310 268 l 115 268 b 46 336 76 268 46 299 b 115 406 46 375 76 406 l 310 406 l 310 601 b 378 671 310 640 340 671 "},"|":{"ha":235,"x_min":0,"x_max":0,"o":"m 113 -150 b 43 -81 74 -150 43 -119 l 43 972 b 113 1040 43 1010 74 1040 b 181 972 150 1040 181 1010 l 181 -81 b 113 -150 181 -119 150 -150 "},"^":{"ha":775,"x_min":0,"x_max":0,"o":"m 710 560 b 613 560 683 533 639 533 l 389 793 l 156 563 b 58 563 129 536 85 536 b 58 660 32 590 32 633 b 340 939 160 763 338 936 b 389 960 354 953 372 960 b 439 939 407 960 425 953 b 710 657 442 936 608 760 b 710 560 736 631 736 588 "},"ç":{"ha":738,"x_min":0,"x_max":0,"o":"m 654 256 b 674 160 686 235 694 192 b 404 0 615 65 514 6 l 403 -14 b 504 -122 458 -15 504 -62 b 397 -226 504 -182 457 -226 b 336 -207 376 -226 357 -222 b 303 -164 311 -190 303 -179 b 339 -128 303 -144 318 -128 b 364 -137 349 -128 357 -132 b 397 -158 383 -156 390 -158 b 435 -122 418 -158 435 -143 b 397 -85 435 -101 418 -85 b 379 -90 392 -85 385 -86 b 357 -97 372 -94 365 -97 b 319 -60 336 -97 319 -81 l 333 3 b 33 349 164 26 33 172 b 381 697 33 542 189 697 b 683 524 506 697 621 631 b 658 429 703 490 690 449 b 564 454 625 411 583 422 b 381 560 526 519 457 560 b 169 349 265 560 169 465 b 381 138 169 233 265 138 b 558 235 453 138 519 174 b 654 256 579 267 622 275 "},"î":{"ha":224,"x_min":0,"x_max":0,"o":"m 113 -1 b 43 68 74 -1 43 29 l 43 628 b 113 696 43 665 74 696 b 181 628 150 696 181 665 l 181 68 b 113 -1 181 29 150 -1 m 268 835 b 171 835 242 808 197 808 l 111 894 l 53 835 b -44 835 26 808 -18 808 b -44 932 -71 863 -71 906 b 63 1040 57 1035 60 1038 b 111 1061 76 1054 94 1061 b 161 1040 129 1061 147 1054 b 268 932 164 1038 167 1035 b 268 835 294 906 294 863 "},"÷":{"ha":201,"x_min":0,"x_max":0,"o":"m 31 547 b 51 596 31 565 38 582 b 100 615 64 608 82 615 b 149 596 118 615 135 608 b 168 547 161 582 168 565 b 149 499 168 529 161 511 b 100 478 135 485 118 478 b 51 499 82 478 64 485 b 31 547 38 511 31 529 m 31 135 b 51 183 31 153 38 169 b 100 203 64 196 82 203 b 149 183 118 203 135 196 b 168 135 161 169 168 153 b 149 86 168 117 161 99 b 100 65 135 72 118 65 b 51 86 82 65 64 72 b 31 135 38 99 31 117 m -231 336 b -161 406 -231 375 -200 406 l 364 406 b 432 336 401 406 432 375 b 364 268 432 299 401 268 l -161 268 b -231 336 -200 268 -231 299 "},"â":{"ha":765,"x_min":0,"x_max":0,"o":"m 388 694 b 729 343 583 694 729 539 l 729 71 b 660 1 729 31 700 1 b 593 71 632 1 593 31 l 593 71 b 388 1 533 21 467 1 b 36 343 192 1 36 147 b 388 694 36 539 192 694 m 388 138 b 593 343 504 138 593 226 b 388 558 593 460 504 558 b 172 343 271 558 172 460 b 388 138 172 226 271 138 m 539 835 b 442 835 513 808 468 808 l 382 894 l 324 835 b 226 835 297 808 253 808 b 226 932 200 863 200 906 b 333 1040 328 1035 331 1038 b 382 1061 347 1054 365 1061 b 432 1040 400 1061 418 1054 b 539 932 435 1038 438 1035 b 539 835 565 906 565 863 "},"C":{"ha":1003,"x_min":0,"x_max":0,"o":"m 526 0 b 36 483 260 0 36 217 b 526 972 36 757 260 972 b 942 732 701 972 858 882 b 917 632 967 690 950 647 b 825 657 885 615 842 624 b 526 831 760 765 650 831 b 178 483 336 831 178 674 b 526 142 178 292 336 142 b 817 300 642 142 751 200 b 908 317 833 333 885 342 b 933 225 942 300 958 257 b 526 0 842 83 693 0 "},"O":{"ha":1032,"x_min":0,"x_max":0,"o":"m 517 1 b 36 490 249 1 36 222 b 517 971 36 751 249 971 b 997 490 785 971 997 751 b 517 1 997 222 785 1 m 517 836 b 171 490 326 836 171 681 b 517 136 171 293 326 136 b 864 490 707 136 864 293 b 517 836 864 681 707 836 "},"Q":{"ha":1039,"x_min":0,"x_max":0,"o":"m 517 1 b 36 490 249 1 36 222 b 517 971 36 751 249 971 b 997 490 785 971 997 751 b 911 210 997 386 965 290 l 1011 115 b 1010 18 1038 89 1038 46 b 914 18 983 -8 940 -8 l 818 108 b 517 1 736 42 631 1 m 621 393 b 718 393 647 421 690 421 l 813 303 b 864 490 844 357 864 421 b 517 836 864 681 707 836 b 171 490 326 836 171 681 b 517 136 171 293 326 136 b 719 203 592 136 663 161 l 621 296 b 621 393 593 324 593 367 "},"T":{"ha":696,"x_min":0,"x_max":0,"o":"m -1 904 b 68 974 -1 943 29 974 l 626 974 b 694 904 664 974 694 943 b 626 836 694 867 664 836 l 415 836 l 415 68 b 347 -1 415 29 385 -1 b 278 68 308 -1 278 29 l 278 836 l 68 836 b -1 904 29 836 -1 867 "},"I":{"ha":225,"x_min":0,"x_max":0,"o":"m 113 -1 b 43 68 74 -1 43 29 l 43 907 b 113 975 43 944 74 975 b 181 907 150 975 181 944 l 181 68 b 113 -1 181 29 150 -1 "},"V":{"ha":817,"x_min":0,"x_max":0,"o":"m 750 972 b 790 883 786 960 804 919 l 469 46 b 404 0 458 18 432 0 b 403 0 403 0 403 0 b 338 46 374 0 347 19 l 26 878 b 67 967 13 914 31 954 b 156 926 103 981 142 963 l 404 263 l 661 932 b 750 972 675 968 714 986 "},"\"":{"ha":393,"x_min":0,"x_max":0,"o":"m 83 688 b 21 757 46 688 21 718 l 21 910 b 83 979 21 947 47 979 b 147 908 122 978 147 946 l 147 756 b 83 688 147 717 122 688 m 299 688 b 236 757 261 688 236 718 l 236 910 b 299 979 236 947 263 979 b 363 908 338 978 363 946 l 363 756 b 299 688 363 717 338 688 "},"#":{"ha":1417,"x_min":0,"x_max":0,"o":"m 1306 721 b 1375 651 1344 721 1375 690 b 1306 582 1375 613 1344 582 l 1054 582 l 935 392 l 1099 392 b 1099 392 1099 392 1099 392 b 1168 322 1136 392 1168 361 b 1099 253 1168 285 1136 253 l 847 253 l 707 32 b 649 0 693 11 671 0 b 611 10 635 0 622 3 b 589 106 579 31 569 74 l 682 253 l 457 253 l 318 32 b 258 0 304 11 282 0 b 222 10 246 0 233 3 b 200 106 189 31 181 74 l 293 253 l 110 253 b 110 253 110 253 110 253 b 40 322 71 253 40 283 b 110 392 40 360 71 392 l 381 392 l 501 582 l 317 582 b 317 582 317 582 317 582 b 247 651 279 582 247 613 b 317 721 247 689 279 721 l 589 721 l 729 942 b 825 963 749 974 792 983 b 846 867 857 943 867 900 l 753 721 l 978 721 l 1118 942 b 1214 963 1138 974 1181 983 b 1235 867 1246 943 1256 900 l 1142 721 l 1306 721 b 1306 721 1306 721 1306 721 m 890 582 l 665 582 l 546 392 l 769 392 l 890 582 "},"@":{"ha":1054,"x_min":0,"x_max":0,"o":"m 972 674 b 1011 486 999 615 1011 551 b 972 299 1011 422 999 358 b 869 144 949 242 914 190 b 863 138 867 143 864 140 b 811 108 839 115 811 108 l 811 108 b 788 104 804 106 794 104 b 713 167 750 104 718 131 l 711 167 l 711 176 b 711 178 711 178 711 178 b 711 183 711 181 711 182 l 711 240 l 711 240 b 711 243 711 240 711 243 l 711 246 b 528 183 660 208 596 183 b 225 486 363 183 225 321 b 528 789 225 653 363 789 b 831 486 694 789 831 653 l 831 288 b 890 486 869 344 890 413 b 528 849 890 686 728 849 b 165 486 328 849 165 686 b 528 124 165 286 328 124 b 589 63 561 124 589 96 b 528 3 589 31 561 3 b 340 42 464 3 399 15 b 186 144 282 65 231 100 b 82 299 140 190 107 242 b 44 486 56 358 44 422 b 82 674 44 551 56 615 b 186 829 107 732 140 783 b 340 932 231 874 282 908 b 528 969 399 958 464 969 b 715 932 593 969 656 958 b 869 829 774 908 825 874 b 972 674 914 783 949 732 m 528 303 b 711 486 629 303 711 386 b 528 669 711 588 629 669 b 344 486 426 669 344 588 b 528 303 344 386 426 303 "},"!":{"ha":222,"x_min":0,"x_max":0,"o":"m 113 972 b 181 903 150 972 181 942 l 181 285 b 113 217 181 247 150 217 b 43 285 74 217 43 247 l 43 903 b 113 972 43 942 74 972 m 113 136 b 161 117 131 136 149 129 b 181 68 174 104 181 86 b 161 19 181 50 174 32 b 113 -1 149 7 131 -1 b 64 19 94 -1 76 7 b 43 68 51 32 43 50 b 64 117 43 86 51 104 b 113 136 76 129 94 136 "},"¡":{"ha":222,"x_min":0,"x_max":0,"o":"m 113 -1 b 43 68 74 -1 43 29 l 43 686 b 113 754 43 724 74 754 b 181 686 150 754 181 724 l 181 68 b 113 -1 181 29 150 -1 m 113 835 b 64 854 94 835 76 842 b 43 903 51 867 43 885 b 64 951 43 921 51 939 b 113 972 76 964 94 972 b 161 951 131 972 149 964 b 181 903 174 939 181 921 b 161 854 181 885 174 867 b 113 835 149 842 131 835 "},"/":{"ha":699,"x_min":0,"x_max":0,"o":"m 56 7 b 32 101 22 26 13 69 l 539 935 b 633 958 558 968 601 978 b 657 863 667 939 678 896 l 150 29 b 56 7 124 -4 88 -12 "},"\\":{"ha":699,"x_min":0,"x_max":0,"o":"m 635 7 b 540 29 603 -12 567 -4 l 33 863 b 57 958 13 896 24 939 b 151 935 89 978 132 968 l 658 101 b 635 7 678 69 668 26 "},"*":{"ha":321,"x_min":0,"x_max":0,"o":"m 282 799 b 292 785 286 796 290 790 b 290 775 292 781 292 778 b 265 765 286 767 275 761 l 189 800 l 219 721 b 217 704 221 715 221 708 b 210 697 215 701 213 699 b 186 707 199 694 189 699 l 156 788 l 121 708 b 107 699 118 704 114 700 b 97 700 104 699 100 699 b 89 725 89 706 85 715 l 122 801 l 44 771 b 21 781 33 768 24 771 b 31 804 17 792 22 801 l 110 835 l 32 869 b 24 893 24 874 19 883 b 47 901 28 901 38 906 l 124 868 l 93 946 b 104 969 90 957 94 967 b 128 960 114 974 124 969 l 157 881 l 192 958 b 217 967 196 967 207 971 b 225 943 224 963 229 953 l 190 867 l 269 897 b 286 894 276 899 283 899 b 293 886 289 893 292 890 b 283 863 296 876 292 867 l 203 833 l 282 799 "},"'":{"ha":186,"x_min":0,"x_max":0,"o":"m 89 688 b 26 757 51 688 26 718 l 26 910 b 89 979 26 947 53 979 b 153 908 128 978 153 946 l 153 756 b 89 688 153 717 128 688 "},"G":{"ha":1044,"x_min":0,"x_max":0,"o":"m 935 554 b 1004 485 972 554 1004 524 b 967 297 1004 421 992 357 b 863 144 942 240 907 189 b 710 40 818 100 767 65 b 521 3 650 15 586 3 b 333 40 457 3 393 15 b 181 144 276 65 225 100 b 76 297 136 189 101 240 b 39 485 51 357 39 421 b 76 674 39 550 51 614 b 181 826 101 731 136 782 b 333 931 225 871 276 906 b 519 968 393 956 456 968 b 921 768 676 972 817 907 b 896 672 944 736 929 692 b 799 697 861 653 824 668 b 519 829 719 790 629 829 l 519 829 b 178 485 331 828 178 675 b 521 142 178 296 332 142 b 858 415 688 142 826 260 l 557 415 b 488 485 518 415 488 447 b 557 554 488 524 518 554 l 935 554 "},"D":{"ha":849,"x_min":0,"x_max":0,"o":"m 115 -1 b 46 68 78 -1 46 31 l 46 903 b 115 974 46 942 78 974 l 317 974 b 525 931 390 974 460 958 b 688 811 588 903 643 863 b 786 638 732 761 765 703 b 806 429 807 571 814 501 b 646 122 792 311 735 203 b 321 -1 557 43 440 -1 m 321 138 b 667 444 497 138 646 269 b 585 719 679 549 650 646 b 317 835 518 793 422 835 l 185 835 l 185 138 "},"H":{"ha":794,"x_min":0,"x_max":0,"o":"m 682 969 b 751 900 719 969 751 938 l 751 69 b 682 0 751 31 719 0 b 613 69 643 0 613 31 l 613 413 l 183 413 l 183 69 b 114 0 183 31 151 0 b 44 69 75 0 44 31 l 44 900 b 114 969 44 938 75 969 b 183 900 151 969 183 938 l 183 551 l 613 551 l 613 900 b 682 969 613 938 643 969 "},"J":{"ha":647,"x_min":0,"x_max":0,"o":"m 531 975 b 600 907 569 975 600 944 l 600 288 b 600 286 600 288 600 286 b 318 7 599 132 472 7 b 38 276 164 7 42 135 b 106 343 38 315 68 343 b 175 276 143 343 175 315 b 318 144 175 210 239 144 b 463 289 397 144 463 210 l 463 907 b 531 975 463 944 493 975 "},"E":{"ha":708,"x_min":0,"x_max":0,"o":"m 600 140 b 669 71 638 140 669 110 b 600 1 669 32 638 1 l 121 1 b 118 1 119 1 119 1 b 115 1 117 1 117 1 b 46 71 76 1 46 32 l 46 901 b 115 971 46 940 76 971 b 118 971 117 971 117 971 b 121 971 119 971 119 971 l 600 971 b 669 901 638 971 669 940 b 600 832 669 863 638 832 l 185 832 l 185 553 l 501 553 b 571 483 539 553 571 522 b 501 414 571 444 539 414 l 185 414 l 185 140 l 600 140 "},"È":{"ha":708,"x_min":0,"x_max":0,"o":"m 600 140 b 669 71 638 140 669 110 b 600 1 669 32 638 1 l 121 1 b 118 1 119 1 119 1 b 115 1 117 1 117 1 b 46 71 76 1 46 32 l 46 901 b 115 971 46 940 76 971 b 118 971 117 971 117 971 b 121 971 119 971 119 971 l 600 971 b 669 901 638 971 669 940 b 600 832 669 863 638 832 l 185 832 l 185 553 l 501 553 b 571 483 539 553 571 522 b 501 414 571 444 539 414 l 185 414 l 185 140 l 600 140 m 456 1131 b 358 1131 429 1103 386 1103 l 250 1239 b 250 1336 224 1265 224 1308 b 347 1336 276 1363 321 1363 l 456 1228 b 456 1131 483 1200 483 1157 "},"É":{"ha":708,"x_min":0,"x_max":0,"o":"m 600 140 b 669 71 638 140 669 110 b 600 1 669 32 638 1 l 121 1 b 118 1 119 1 119 1 b 115 1 117 1 117 1 b 46 71 76 1 46 32 l 46 901 b 115 971 46 940 76 971 b 118 971 117 971 117 971 b 121 971 119 971 119 971 l 600 971 b 669 901 638 971 669 940 b 600 832 669 863 638 832 l 185 832 l 185 553 l 501 553 b 571 483 539 553 571 522 b 501 414 571 444 539 414 l 185 414 l 185 140 l 600 140 m 251 1131 b 251 1228 224 1157 224 1200 l 360 1336 b 457 1336 386 1363 431 1363 b 457 1239 483 1308 483 1265 l 349 1131 b 251 1131 321 1103 278 1103 "},"Ê":{"ha":708,"x_min":0,"x_max":0,"o":"m 600 140 b 669 71 638 140 669 110 b 600 1 669 32 638 1 l 121 1 b 118 1 119 1 119 1 b 115 1 117 1 117 1 b 46 71 76 1 46 32 l 46 901 b 115 971 46 940 76 971 b 118 971 117 971 117 971 b 121 971 119 971 119 971 l 600 971 b 669 901 638 971 669 940 b 600 832 669 863 638 832 l 185 832 l 185 553 l 501 553 b 571 483 539 553 571 522 b 501 414 571 444 539 414 l 185 414 l 185 140 l 600 140 m 510 1113 b 413 1113 483 1086 439 1086 l 353 1172 l 294 1113 b 197 1113 268 1086 224 1086 b 197 1210 171 1140 171 1183 b 304 1318 299 1313 301 1315 b 353 1339 318 1332 336 1339 b 403 1318 371 1339 389 1332 b 510 1210 406 1315 408 1313 b 510 1113 536 1183 536 1140 "},"Ë":{"ha":708,"x_min":0,"x_max":0,"o":"m 600 140 b 669 71 638 140 669 110 b 600 1 669 32 638 1 l 121 1 b 118 1 119 1 119 1 b 115 1 117 1 117 1 b 46 71 76 1 46 32 l 46 901 b 115 971 46 940 76 971 b 118 971 117 971 117 971 b 121 971 119 971 119 971 l 600 971 b 669 901 638 971 669 940 b 600 832 669 863 638 832 l 185 832 l 185 553 l 501 553 b 571 483 539 553 571 522 b 501 414 571 444 539 414 l 185 414 l 185 140 l 600 140 m 215 1114 b 167 1135 197 1114 181 1121 b 147 1183 154 1147 147 1165 b 167 1232 147 1201 154 1218 b 215 1251 181 1244 197 1251 b 264 1232 233 1251 251 1244 b 285 1183 278 1218 285 1201 b 264 1135 285 1165 278 1147 b 215 1114 251 1121 233 1114 m 490 1114 b 442 1135 472 1114 456 1121 b 422 1183 429 1147 422 1165 b 442 1232 422 1201 429 1218 b 490 1251 456 1244 472 1251 b 539 1232 508 1251 526 1244 b 560 1183 553 1218 560 1201 b 539 1135 560 1165 553 1147 b 490 1114 526 1121 508 1114 "},"Ì":{"ha":225,"x_min":0,"x_max":0,"o":"m 113 -1 b 181 68 150 -1 181 29 l 181 907 b 113 975 181 944 150 975 b 43 907 74 975 43 944 l 43 68 b 113 -1 43 29 74 -1 m 215 1131 b 118 1131 189 1103 146 1103 l 10 1239 b 10 1336 -17 1265 -17 1308 b 107 1336 36 1363 81 1363 l 215 1228 b 215 1131 243 1200 243 1157 "},"Í":{"ha":225,"x_min":0,"x_max":0,"o":"m 113 -1 b 43 68 74 -1 43 29 l 43 907 b 113 975 43 944 74 975 b 181 907 150 975 181 944 l 181 68 b 113 -1 181 29 150 -1 m 11 1131 b 11 1228 -17 1157 -17 1200 l 119 1336 b 217 1336 146 1363 190 1363 b 217 1239 243 1308 243 1265 l 108 1131 b 11 1131 81 1103 38 1103 "},"Î":{"ha":225,"x_min":0,"x_max":0,"o":"m 113 -1 b 43 68 74 -1 43 29 l 43 907 b 113 975 43 944 74 975 b 181 907 150 975 181 944 l 181 68 b 113 -1 181 29 150 -1 m 269 1113 b 172 1113 243 1086 199 1086 l 113 1172 l 54 1113 b -43 1113 28 1086 -17 1086 b -43 1210 -69 1140 -69 1183 b 64 1318 58 1313 61 1315 b 113 1339 78 1332 96 1339 b 163 1318 131 1339 149 1332 b 269 1210 165 1315 168 1313 b 269 1113 296 1183 296 1140 "},"Ï":{"ha":225,"x_min":0,"x_max":0,"o":"m 113 -1 b 43 68 74 -1 43 29 l 43 907 b 113 975 43 944 74 975 b 181 907 150 975 181 944 l 181 68 b 113 -1 181 29 150 -1 m -25 1114 b -74 1135 -43 1114 -60 1121 b -93 1183 -86 1147 -93 1165 b -74 1232 -93 1201 -86 1218 b -25 1251 -60 1244 -43 1251 b 24 1232 -7 1251 11 1244 b 44 1183 38 1218 44 1201 b 24 1135 44 1165 38 1147 b -25 1114 11 1121 -7 1114 m 250 1114 b 201 1135 232 1114 215 1121 b 182 1183 189 1147 182 1165 b 201 1232 182 1201 189 1218 b 250 1251 215 1244 232 1251 b 299 1232 268 1251 286 1244 b 319 1183 313 1218 319 1201 b 299 1135 319 1165 313 1147 b 250 1114 286 1121 268 1114 "},"Ò":{"ha":1032,"x_min":0,"x_max":0,"o":"m 517 1 b 997 490 785 1 997 222 b 517 971 997 751 785 971 b 36 490 249 971 36 751 b 517 1 36 222 249 1 m 517 836 b 864 490 707 836 864 681 b 517 136 864 293 707 136 b 171 490 326 136 171 293 b 517 836 171 681 326 836 m 618 1131 b 521 1131 592 1103 549 1103 l 413 1239 b 413 1336 386 1265 386 1308 b 510 1336 439 1363 483 1363 l 618 1228 b 618 1131 646 1200 646 1157 "},"Ó":{"ha":1032,"x_min":0,"x_max":0,"o":"m 517 1 b 36 490 249 1 36 222 b 517 971 36 751 249 971 b 997 490 785 971 997 751 b 517 1 997 222 785 1 m 517 836 b 171 490 326 836 171 681 b 517 136 171 293 326 136 b 864 490 707 136 864 293 b 517 836 864 681 707 836 m 414 1131 b 414 1228 386 1157 386 1200 l 522 1336 b 619 1336 549 1363 593 1363 b 619 1239 646 1308 646 1265 l 511 1131 b 414 1131 483 1103 440 1103 "},"Ô":{"ha":1032,"x_min":0,"x_max":0,"o":"m 517 1 b 36 490 249 1 36 222 b 517 971 36 751 249 971 b 997 490 785 971 997 751 b 517 1 997 222 785 1 m 517 836 b 171 490 326 836 171 681 b 517 136 171 293 326 136 b 864 490 707 136 864 293 b 517 836 864 681 707 836 m 672 1113 b 575 1113 646 1086 601 1086 l 515 1172 l 457 1113 b 360 1113 431 1086 386 1086 b 360 1210 333 1140 333 1183 b 467 1318 461 1313 464 1315 b 515 1339 481 1332 499 1339 b 565 1318 533 1339 551 1332 b 672 1210 568 1315 571 1313 b 672 1113 699 1183 699 1140 "},"Õ":{"ha":1032,"x_min":0,"x_max":0,"o":"m 517 1 b 997 490 785 1 997 222 b 517 971 997 751 785 971 b 36 490 249 971 36 751 b 517 1 36 222 249 1 m 517 836 b 864 490 707 836 864 681 b 517 136 864 293 707 136 b 171 490 326 136 171 293 b 517 836 171 681 326 836 m 718 1233 b 738 1186 729 1221 738 1204 b 669 1118 738 1149 707 1118 b 633 1128 656 1118 643 1122 b 622 1136 629 1131 625 1133 b 618 1140 621 1138 619 1139 b 617 1142 618 1140 618 1142 b 601 1158 611 1147 606 1153 b 581 1174 586 1174 585 1174 b 561 1158 576 1174 575 1174 b 440 1099 540 1136 506 1099 b 321 1158 376 1099 342 1136 b 314 1165 318 1161 317 1163 b 311 1168 313 1167 313 1167 b 293 1214 300 1181 293 1196 b 361 1282 293 1251 324 1282 b 408 1263 379 1282 396 1275 b 410 1261 410 1263 410 1263 b 421 1250 414 1257 418 1254 b 440 1235 436 1235 436 1235 b 461 1250 444 1235 446 1235 b 581 1310 482 1272 517 1310 b 701 1250 646 1310 681 1272 l 718 1233 "},"Ö":{"ha":1032,"x_min":0,"x_max":0,"o":"m 517 1 b 36 490 249 1 36 222 b 517 971 36 751 249 971 b 997 490 785 971 997 751 b 517 1 997 222 785 1 m 517 836 b 171 490 326 836 171 681 b 517 136 171 293 326 136 b 864 490 707 136 864 293 b 517 836 864 681 707 836 m 378 1114 b 329 1135 360 1114 343 1121 b 310 1183 317 1147 310 1165 b 329 1232 310 1201 317 1218 b 378 1251 343 1244 360 1251 b 426 1232 396 1251 414 1244 b 447 1183 440 1218 447 1201 b 426 1135 447 1165 440 1147 b 378 1114 414 1121 396 1114 m 653 1114 b 604 1135 635 1114 618 1121 b 585 1183 592 1147 585 1165 b 604 1232 585 1201 592 1218 b 653 1251 618 1244 635 1251 b 701 1232 671 1251 689 1244 b 722 1183 715 1218 722 1201 b 701 1135 722 1165 715 1147 b 653 1114 689 1121 671 1114 "},"U":{"ha":767,"x_min":0,"x_max":0,"o":"m 385 0 b 36 349 193 0 36 156 l 36 893 b 104 963 36 932 67 963 b 174 893 143 963 174 932 l 174 349 b 385 138 174 232 268 138 b 596 349 501 138 596 232 l 596 893 b 664 963 596 932 626 963 b 733 893 703 963 733 932 l 733 349 b 385 0 733 156 576 0 "},"Ù":{"ha":767,"x_min":0,"x_max":0,"o":"m 385 0 b 733 349 576 0 733 156 l 733 893 b 664 963 733 932 703 963 b 596 893 626 963 596 932 l 596 349 b 385 138 596 232 501 138 b 174 349 268 138 174 232 l 174 893 b 104 963 174 932 143 963 b 36 893 67 963 36 932 l 36 349 b 385 0 36 156 193 0 m 485 1131 b 388 1131 458 1103 415 1103 l 279 1239 b 279 1336 253 1265 253 1308 b 376 1336 306 1363 350 1363 l 485 1228 b 485 1131 513 1200 513 1157 "},"Ú":{"ha":767,"x_min":0,"x_max":0,"o":"m 385 0 b 36 349 193 0 36 156 l 36 893 b 104 963 36 932 67 963 b 174 893 143 963 174 932 l 174 349 b 385 138 174 232 268 138 b 596 349 501 138 596 232 l 596 893 b 664 963 596 932 626 963 b 733 893 703 963 733 932 l 733 349 b 385 0 733 156 576 0 m 281 1131 b 281 1228 253 1157 253 1200 l 389 1336 b 486 1336 415 1363 460 1363 b 486 1239 513 1308 513 1265 l 378 1131 b 281 1131 350 1103 307 1103 "},"Û":{"ha":767,"x_min":0,"x_max":0,"o":"m 385 0 b 36 349 193 0 36 156 l 36 893 b 104 963 36 932 67 963 b 174 893 143 963 174 932 l 174 349 b 385 138 174 232 268 138 b 596 349 501 138 596 232 l 596 893 b 664 963 596 932 626 963 b 733 893 703 963 733 932 l 733 349 b 385 0 733 156 576 0 m 539 1113 b 442 1113 513 1086 468 1086 l 382 1172 l 324 1113 b 226 1113 297 1086 253 1086 b 226 1210 200 1140 200 1183 b 333 1318 328 1313 331 1315 b 382 1339 347 1332 365 1339 b 432 1318 400 1339 418 1332 b 539 1210 435 1315 438 1313 b 539 1113 565 1183 565 1140 "},"Ü":{"ha":767,"x_min":0,"x_max":0,"o":"m 385 0 b 36 349 193 0 36 156 l 36 893 b 104 963 36 932 67 963 b 174 893 143 963 174 932 l 174 349 b 385 138 174 232 268 138 b 596 349 501 138 596 232 l 596 893 b 664 963 596 932 626 963 b 733 893 703 963 733 932 l 733 349 b 385 0 733 156 576 0 m 244 1114 b 196 1135 226 1114 210 1121 b 176 1183 183 1147 176 1165 b 196 1232 176 1201 183 1218 b 244 1251 210 1244 226 1251 b 293 1232 263 1251 281 1244 b 314 1183 307 1218 314 1201 b 293 1135 314 1165 307 1147 b 244 1114 281 1121 263 1114 m 519 1114 b 471 1135 501 1114 485 1121 b 451 1183 458 1147 451 1165 b 471 1232 451 1201 458 1218 b 519 1251 485 1244 501 1251 b 568 1232 538 1251 556 1244 b 589 1183 582 1218 589 1201 b 568 1135 589 1165 582 1147 b 519 1114 556 1121 538 1114 "},"À":{"ha":788,"x_min":0,"x_max":0,"o":"m 746 93 b 704 1 761 60 746 19 b 613 51 672 -6 629 10 l 563 193 l 224 193 l 165 51 b 99 1 158 19 132 1 b 83 1 90 1 90 1 b 33 93 42 19 25 60 l 331 921 b 399 971 339 947 364 971 b 464 921 432 971 456 947 l 746 93 m 274 333 l 521 333 l 399 689 l 274 333 m 496 1131 b 399 1131 469 1103 426 1103 l 290 1239 b 290 1336 264 1265 264 1308 b 388 1336 317 1363 361 1363 l 496 1228 b 496 1131 524 1200 524 1157 "},"Á":{"ha":788,"x_min":0,"x_max":0,"o":"m 746 93 b 704 1 761 60 746 19 b 613 51 672 -6 629 10 l 563 193 l 224 193 l 165 51 b 99 1 158 19 132 1 b 83 1 90 1 90 1 b 33 93 42 19 25 60 l 331 921 b 399 971 339 947 364 971 b 464 921 432 971 456 947 l 746 93 m 274 333 l 521 333 l 399 689 l 274 333 m 292 1131 b 292 1228 264 1157 264 1200 l 400 1336 b 497 1336 426 1363 471 1363 b 497 1239 524 1308 524 1265 l 389 1131 b 292 1131 361 1103 318 1103 "},"Â":{"ha":788,"x_min":0,"x_max":0,"o":"m 746 93 b 704 1 761 60 746 19 b 613 51 672 -6 629 10 l 563 193 l 224 193 l 165 51 b 99 1 158 19 132 1 b 83 1 90 1 90 1 b 33 93 42 19 25 60 l 331 921 b 399 971 339 947 364 971 b 464 921 432 971 456 947 l 746 93 m 274 333 l 521 333 l 399 689 l 274 333 m 550 1113 b 453 1113 524 1086 479 1086 l 393 1172 l 335 1113 b 238 1113 308 1086 264 1086 b 238 1210 211 1140 211 1183 b 344 1318 339 1313 342 1315 b 393 1339 358 1332 376 1339 b 443 1318 411 1339 429 1332 b 550 1210 446 1315 449 1313 b 550 1113 576 1183 576 1140 "},"Ã":{"ha":788,"x_min":0,"x_max":0,"o":"m 746 93 b 704 1 761 60 746 19 b 613 51 672 -6 629 10 l 563 193 l 224 193 l 165 51 b 99 1 158 19 132 1 b 83 1 90 1 90 1 b 33 93 42 19 25 60 l 331 921 b 399 971 339 947 364 971 b 464 921 432 971 456 947 l 746 93 m 274 333 l 521 333 l 399 689 l 274 333 m 596 1233 b 615 1186 607 1221 615 1204 b 547 1118 615 1149 585 1118 b 511 1128 533 1118 521 1122 b 500 1136 507 1131 503 1133 b 496 1140 499 1138 497 1139 b 494 1142 496 1140 496 1142 b 479 1158 489 1147 483 1153 b 458 1174 464 1174 463 1174 b 439 1158 454 1174 453 1174 b 318 1099 418 1136 383 1099 b 199 1158 254 1099 219 1136 b 192 1165 196 1161 194 1163 b 189 1168 190 1167 190 1167 b 171 1214 178 1181 171 1196 b 239 1282 171 1251 201 1282 b 286 1263 257 1282 274 1275 b 288 1261 288 1263 288 1263 b 299 1250 292 1257 296 1254 b 318 1235 314 1235 314 1235 b 339 1250 322 1235 324 1235 b 458 1310 360 1272 394 1310 b 579 1250 524 1310 558 1272 l 596 1233 "},"Ä":{"ha":788,"x_min":0,"x_max":0,"o":"m 746 93 b 704 1 761 60 746 19 b 613 51 672 -6 629 10 l 563 193 l 224 193 l 165 51 b 99 1 158 19 132 1 b 83 1 90 1 90 1 b 33 93 42 19 25 60 l 331 921 b 399 971 339 947 364 971 b 464 921 432 971 456 947 l 746 93 m 274 333 l 521 333 l 399 689 l 274 333 m 256 1114 b 207 1135 238 1114 221 1121 b 188 1183 194 1147 188 1165 b 207 1232 188 1201 194 1218 b 256 1251 221 1244 238 1251 b 304 1232 274 1251 292 1244 b 325 1183 318 1218 325 1201 b 304 1135 325 1165 318 1147 b 256 1114 292 1121 274 1114 m 531 1114 b 482 1135 513 1114 496 1121 b 463 1183 469 1147 463 1165 b 482 1232 463 1201 469 1218 b 531 1251 496 1244 513 1251 b 579 1232 549 1251 567 1244 b 600 1183 593 1218 600 1201 b 579 1135 600 1165 593 1147 b 531 1114 567 1121 549 1114 "},"Ç":{"ha":1003,"x_min":0,"x_max":0,"o":"m 917 311 b 942 219 950 294 967 251 b 532 -6 850 78 701 -6 l 531 -21 b 632 -129 586 -22 632 -69 b 525 -233 632 -189 585 -233 b 450 -204 504 -233 485 -229 b 431 -171 439 -197 431 -186 b 467 -135 431 -151 446 -135 b 492 -144 476 -135 485 -139 b 525 -165 511 -162 518 -165 b 563 -129 546 -165 563 -150 b 525 -92 563 -108 546 -92 b 485 -104 511 -92 501 -104 b 447 -67 464 -104 447 -87 l 457 -1 b 44 478 222 31 44 233 b 535 967 44 751 268 967 b 950 726 710 967 867 876 b 925 626 975 685 958 642 b 833 651 893 610 850 618 b 535 825 768 760 658 825 b 186 478 344 825 186 668 b 535 136 186 286 344 136 b 825 294 650 136 760 194 b 917 311 842 328 893 336 "},"F":{"ha":676,"x_min":0,"x_max":0,"o":"m 603 971 b 672 901 640 971 672 940 b 603 832 672 863 640 832 l 189 832 l 189 553 l 504 553 b 574 483 542 553 574 522 b 504 414 574 444 542 414 l 189 414 l 189 71 b 119 1 189 32 157 1 b 50 71 81 1 50 32 l 50 901 b 119 971 50 940 81 971 b 121 971 119 971 121 971 b 124 971 122 971 122 971 l 603 971 "},"B":{"ha":775,"x_min":0,"x_max":0,"o":"m 589 518 b 739 272 679 471 739 375 b 739 272 739 272 739 272 b 479 -1 738 126 624 10 b 114 -1 475 -1 504 -1 b 111 -1 113 -1 113 -1 b 110 -1 111 -1 110 -1 b 40 68 71 -1 40 29 l 40 899 b 111 968 40 936 72 968 b 379 968 113 968 81 968 b 650 690 525 960 650 843 b 589 518 649 625 626 565 m 513 692 b 368 829 511 769 447 829 l 179 829 l 179 550 l 368 550 l 368 550 b 513 692 447 550 511 613 m 469 138 b 601 272 538 138 601 197 b 463 411 601 342 539 410 l 179 411 l 179 138 l 469 138 "},"P":{"ha":682,"x_min":0,"x_max":0,"o":"m 414 971 b 685 694 564 965 685 843 b 419 415 685 550 572 432 b 182 414 415 414 410 414 l 182 71 b 113 1 182 32 150 1 b 43 71 74 1 43 32 l 43 901 b 113 971 43 940 74 971 b 414 971 113 971 310 971 m 403 553 b 547 694 482 553 546 615 b 403 832 546 772 482 832 l 182 832 l 182 553 "},"R":{"ha":721,"x_min":0,"x_max":0,"o":"m 686 693 b 481 422 686 569 603 467 l 675 106 b 651 10 694 74 685 31 b 615 0 640 3 628 0 b 556 33 592 0 569 13 l 325 411 l 183 411 l 183 68 b 114 0 183 29 151 0 b 44 68 75 0 44 29 l 44 899 b 115 968 44 936 76 968 b 118 968 117 968 117 968 l 410 968 b 686 693 550 968 685 849 m 404 550 b 549 692 483 550 547 613 b 404 829 547 769 483 829 l 183 829 l 183 550 l 404 550 "},"[":{"ha":368,"x_min":0,"x_max":0,"o":"m 113 0 l 110 0 b 43 69 72 1 43 31 l 43 972 b 110 1040 43 1008 72 1039 l 115 1040 l 118 1040 l 258 1040 b 326 971 296 1040 326 1010 b 258 903 326 933 296 903 l 181 903 l 181 138 l 258 138 b 326 68 296 138 326 107 b 258 0 326 31 296 0 l 115 0 "},"]":{"ha":376,"x_min":0,"x_max":0,"o":"m 254 0 l 111 0 b 43 68 74 0 43 31 b 111 138 43 107 74 138 l 189 138 l 189 903 l 111 903 b 43 971 74 903 43 933 b 111 1040 43 1010 74 1040 l 251 1040 l 254 1040 l 260 1040 b 326 972 297 1039 326 1008 l 326 69 b 260 0 326 31 297 1 l 257 0 "},"L":{"ha":663,"x_min":0,"x_max":0,"o":"m 594 139 b 664 69 632 139 664 108 b 594 0 664 31 632 0 l 115 0 b 113 0 114 0 114 0 b 111 0 113 0 111 0 b 42 69 72 0 42 31 l 42 900 b 111 969 42 939 72 969 b 181 900 149 969 181 939 l 181 139 l 594 139 "},"W":{"ha":1210,"x_min":0,"x_max":0,"o":"m 1164 972 b 1204 883 1200 960 1218 919 l 883 46 b 818 0 872 18 846 0 l 817 0 b 751 46 788 0 761 19 l 600 436 l 446 46 b 381 0 435 18 408 0 l 379 0 b 314 46 350 0 324 19 l 3 878 b 43 967 -11 914 7 954 b 132 926 79 981 118 963 l 381 263 l 535 653 b 600 697 546 681 572 699 b 665 653 629 699 656 681 l 818 263 l 1075 932 b 1164 972 1089 968 1128 986 "},"Z":{"ha":836,"x_min":0,"x_max":0,"o":"m 726 138 b 794 69 764 138 794 107 b 726 0 794 32 764 0 b 726 0 726 0 726 0 l 97 0 b 35 39 71 0 46 15 b 42 113 22 64 25 92 l 589 836 l 101 836 b 33 906 64 836 33 868 b 101 974 33 943 64 974 l 726 974 b 789 935 753 974 778 960 b 782 863 801 911 799 883 l 235 138 l 726 138 "},"X":{"ha":849,"x_min":0,"x_max":0,"o":"m 810 115 b 797 19 833 85 828 42 b 756 4 785 10 771 4 b 701 31 735 4 715 14 l 432 374 l 150 26 b 96 0 136 10 117 0 b 54 15 81 0 67 6 b 42 111 24 38 18 81 l 344 486 l 44 858 b 57 956 21 889 26 932 b 153 943 86 979 129 974 l 432 599 l 706 943 b 801 956 729 974 772 979 b 814 858 832 932 838 889 l 519 486 "},"Y":{"ha":693,"x_min":0,"x_max":0,"o":"m 625 978 b 694 910 663 978 694 947 l 694 761 b 414 419 694 593 574 451 l 414 74 b 346 4 414 35 383 4 b 276 74 307 4 276 35 l 276 419 b -3 761 117 451 -3 593 l -3 910 b 65 978 -3 947 28 978 b 135 910 103 978 135 947 l 135 761 b 346 550 135 646 229 550 b 557 761 461 550 557 646 l 557 910 b 625 978 557 947 588 978 "},"¥":{"ha":772,"x_min":0,"x_max":0,"o":"m 732 754 b 451 413 732 586 611 444 l 451 364 l 590 364 b 644 308 621 364 644 340 b 590 254 644 279 621 254 l 451 254 l 451 208 l 590 208 b 644 153 621 208 644 185 b 590 99 644 124 621 99 l 451 99 l 451 67 b 383 -3 451 28 421 -3 b 314 67 344 -3 314 28 l 314 99 l 169 99 b 114 153 139 99 114 124 b 169 208 114 185 139 208 l 314 208 l 314 254 l 169 254 b 114 308 139 254 114 279 b 169 364 114 340 139 364 l 314 364 l 314 413 b 35 754 154 444 35 586 l 35 903 b 103 971 35 940 65 971 b 172 903 140 971 172 940 l 172 754 b 383 543 172 639 267 543 b 594 754 499 543 594 639 l 594 903 b 663 971 594 940 625 971 b 732 903 700 971 732 940 l 732 754 "},"M":{"ha":1078,"x_min":0,"x_max":0,"o":"m 989 1 b 921 58 957 1 928 25 l 803 638 l 585 51 b 518 3 575 22 549 3 b 518 3 518 3 518 3 b 451 51 488 3 461 24 l 258 617 l 154 58 b 75 1 149 21 113 -6 b 18 82 36 8 11 43 l 158 917 b 224 974 164 949 192 972 b 294 925 256 976 285 956 l 519 293 l 753 926 b 822 975 763 957 792 976 b 888 918 854 974 882 950 l 1057 85 b 1003 3 1064 47 1040 11 b 989 1 999 3 993 1 "},"K":{"ha":699,"x_min":0,"x_max":0,"o":"m 683 108 b 674 11 708 79 704 36 b 631 -4 661 1 646 -4 b 578 21 611 -4 592 4 l 272 422 l 186 332 l 186 65 b 117 -4 186 26 156 -4 b 49 65 79 -4 49 26 l 49 906 b 117 975 49 944 79 975 b 186 906 156 975 186 944 l 186 529 l 571 940 b 667 953 593 971 636 976 b 679 857 697 931 703 888 l 368 522 l 683 108 "},"N":{"ha":803,"x_min":0,"x_max":0,"o":"m 761 76 b 731 8 765 50 754 24 b 693 -3 719 0 706 -3 b 635 29 671 -3 649 8 l 181 682 l 181 65 b 113 -3 181 28 150 -3 b 43 65 75 -3 43 28 l 43 900 b 75 968 40 926 51 953 b 171 947 107 989 150 981 l 624 275 l 624 910 b 693 979 624 949 656 979 b 761 910 731 979 761 949 l 761 76 "},"S":{"ha":593,"x_min":0,"x_max":0,"o":"m 296 556 b 574 278 449 556 574 431 b 296 -1 574 124 449 -1 b 18 278 143 -1 18 124 b 88 347 18 315 49 347 b 157 278 126 347 157 315 b 296 138 157 200 219 138 b 435 278 372 138 435 200 b 296 417 435 354 372 417 b 18 694 143 417 18 540 b 296 972 18 847 143 972 b 574 694 449 972 574 847 b 504 625 574 656 543 625 b 435 694 467 625 435 656 b 296 833 435 771 372 833 b 157 694 219 833 157 771 b 296 556 157 618 219 556 "},"Š":{"ha":593,"x_min":0,"x_max":0,"o":"m 296 556 b 574 278 449 556 574 431 b 296 -1 574 124 449 -1 b 18 278 143 -1 18 124 b 88 347 18 315 49 347 b 157 278 126 347 157 315 b 296 138 157 200 219 138 b 435 278 372 138 435 200 b 296 417 435 354 372 417 b 18 694 143 417 18 540 b 296 972 18 847 143 972 b 574 694 449 972 574 847 b 504 625 574 656 543 625 b 435 694 467 625 435 656 b 296 833 435 771 372 833 b 157 694 219 833 157 771 b 296 556 157 618 219 556 m 453 1313 b 453 1215 479 1285 479 1242 b 346 1107 351 1113 349 1110 b 296 1086 332 1093 314 1086 b 247 1107 279 1086 261 1093 b 140 1215 244 1110 242 1113 b 140 1313 114 1242 114 1285 b 238 1313 167 1339 211 1339 l 296 1253 l 356 1313 b 453 1313 382 1339 426 1339 "},"š":{"ha":481,"x_min":0,"x_max":0,"o":"m 388 356 b 449 208 428 315 449 264 b 240 -1 449 93 356 -1 b 36 150 142 -1 63 69 b 89 232 24 186 53 224 b 171 178 126 239 153 213 b 240 136 190 142 207 136 b 311 208 279 136 311 168 b 240 279 311 247 279 279 b 93 340 185 279 132 301 b 32 488 53 379 32 432 b 240 696 32 603 125 696 b 440 551 338 696 426 629 b 388 469 447 514 425 476 b 306 521 350 461 318 486 b 240 558 297 543 274 558 b 169 488 201 558 169 526 b 240 417 169 449 201 417 b 388 356 296 417 349 394 m 396 1035 b 396 938 422 1007 422 964 b 289 829 294 835 292 832 b 239 808 275 815 257 808 b 190 829 222 808 204 815 b 83 938 188 832 185 835 b 83 1035 57 964 57 1007 b 181 1035 110 1061 154 1061 l 239 975 l 299 1035 b 396 1035 325 1061 369 1061 "},"Ý":{"ha":693,"x_min":0,"x_max":0,"o":"m 625 978 b 694 910 663 978 694 947 l 694 761 b 414 419 694 593 574 451 l 414 74 b 346 4 414 35 383 4 b 276 74 307 4 276 35 l 276 419 b -3 761 117 451 -3 593 l -3 910 b 65 978 -3 947 28 978 b 135 910 103 978 135 947 l 135 761 b 346 550 135 646 229 550 b 557 761 461 550 557 646 l 557 910 b 625 978 557 947 588 978 m 244 1131 b 244 1228 217 1157 217 1200 l 353 1336 b 450 1336 379 1363 424 1363 b 450 1239 476 1308 476 1265 l 342 1131 b 244 1131 314 1103 271 1103 "},"$":{"ha":593,"x_min":0,"x_max":0,"o":"m 363 546 b 574 276 485 515 574 406 b 363 6 574 146 485 36 l 363 -58 b 294 -128 363 -97 332 -128 b 225 -58 256 -128 225 -97 l 225 7 b 18 276 107 38 18 147 b 88 346 18 314 49 346 b 157 276 126 346 157 314 b 225 156 157 225 185 181 l 225 425 b 18 693 107 456 18 564 b 225 961 18 821 107 931 l 225 1017 b 294 1085 225 1054 256 1085 b 363 1017 332 1085 363 1054 l 363 963 b 574 693 485 932 574 822 b 504 624 574 654 543 624 b 435 693 467 624 435 654 b 363 815 435 746 406 792 l 363 546 m 157 693 b 225 574 157 643 185 599 l 225 813 b 157 693 185 788 157 743 m 363 153 b 435 276 406 178 435 224 b 363 399 435 329 406 375 l 363 153 "},"‚":{"ha":178,"x_min":0,"x_max":0,"o":"m 86 -140 b 24 -71 49 -140 24 -110 l 24 82 b 86 151 24 119 50 151 b 150 81 125 150 150 118 l 150 -72 b 86 -140 150 -111 125 -140 "},"„":{"ha":397,"x_min":0,"x_max":0,"o":"m 88 -139 b 25 -69 50 -139 25 -108 l 25 83 b 88 153 25 121 51 153 b 151 82 126 151 151 119 l 151 -71 b 88 -139 151 -110 126 -139 m 303 -139 b 240 -69 265 -139 240 -108 l 240 83 b 303 153 240 121 267 153 b 367 82 342 151 367 119 l 367 -71 b 303 -139 367 -110 342 -139 "},"?":{"ha":624,"x_min":0,"x_max":0,"o":"m 525 506 l 525 506 l 413 392 b 368 278 385 364 371 321 b 300 226 360 247 332 226 b 233 278 269 226 242 247 b 300 475 231 351 256 424 l 419 597 b 453 688 442 622 453 654 b 313 829 453 765 390 829 b 168 669 235 829 172 765 b 101 619 161 640 133 619 b 33 688 64 619 33 650 b 313 968 33 843 158 968 b 593 688 467 968 593 843 b 525 506 593 621 568 557 m 300 -1 b 349 19 318 -1 336 6 b 369 68 363 32 369 50 b 349 117 369 86 363 103 b 300 136 336 129 318 136 b 251 117 282 136 265 129 b 232 68 239 103 232 86 b 251 19 232 50 239 32 b 300 -1 265 6 282 -1 "},"€":{"ha":667,"x_min":0,"x_max":0,"o":"m 578 139 b 647 69 615 139 647 108 b 578 1 647 32 615 1 l 440 1 b 160 281 286 1 161 126 b 160 281 160 281 160 281 l 160 314 l 92 314 b 22 382 53 314 22 344 b 92 451 22 421 53 451 l 160 451 l 160 529 l 92 529 b 22 597 53 529 22 560 b 92 667 22 636 53 667 l 160 667 l 160 688 b 160 689 160 689 160 689 b 440 968 161 843 286 968 l 578 968 b 647 900 615 968 647 938 b 578 831 647 861 615 831 l 440 831 b 296 686 361 831 296 767 l 296 667 l 578 667 b 646 597 615 667 646 636 b 578 529 646 560 615 529 l 296 529 l 296 451 l 578 451 b 646 382 615 451 646 421 b 578 314 646 344 615 314 l 296 314 l 296 282 b 440 139 296 203 361 139 l 578 139 "},"£":{"ha":832,"x_min":0,"x_max":0,"o":"m 518 838 b 374 693 439 838 374 772 l 374 458 l 593 458 b 661 389 631 458 661 428 b 593 321 661 351 631 321 l 375 321 l 375 278 b 338 138 375 226 361 178 l 731 138 b 799 68 768 138 799 107 b 731 0 799 31 768 0 l 136 0 l 96 0 b 29 68 58 1 29 31 b 99 138 29 107 60 138 l 125 138 b 236 278 186 151 240 208 l 236 321 l 99 321 b 29 389 60 321 29 351 b 99 458 29 428 60 458 l 236 458 l 236 694 b 236 696 236 694 236 696 b 518 975 238 850 364 975 b 799 694 672 975 794 847 l 799 694 b 799 693 799 694 799 694 b 731 625 799 656 768 625 b 661 693 693 625 661 656 b 518 838 661 772 597 838 "},"(":{"ha":432,"x_min":0,"x_max":0,"o":"m 324 138 b 393 68 363 138 393 106 b 324 -1 393 29 363 -1 b 43 278 169 -1 44 124 b 43 279 43 278 43 279 l 43 464 b 43 464 43 464 43 464 l 43 694 b 43 696 43 696 43 696 b 324 975 44 850 169 975 l 324 975 b 326 975 325 975 325 975 b 396 906 364 975 396 944 b 318 838 396 865 358 831 b 181 693 242 833 181 771 l 181 628 b 181 628 181 628 181 628 l 181 281 b 324 138 182 210 243 129 "},")":{"ha":440,"x_min":0,"x_max":0,"o":"m 115 138 b 258 281 196 129 257 210 l 258 628 b 258 628 258 628 258 628 l 258 693 b 121 838 258 771 197 833 b 43 906 81 831 43 865 b 113 975 43 944 75 975 b 115 975 114 975 114 975 l 115 975 b 396 696 269 975 394 850 b 396 694 396 696 396 696 l 396 464 b 396 464 396 464 396 464 l 396 279 b 396 278 396 279 396 278 b 115 -1 394 124 269 -1 b 46 68 76 -1 46 29 b 115 138 46 106 76 138 "},"{":{"ha":569,"x_min":0,"x_max":0,"o":"m 478 124 b 543 61 500 124 543 106 b 479 -1 543 26 514 -1 l 478 -1 b 222 275 338 -1 222 122 b 94 417 222 351 164 417 b 26 485 57 417 26 447 b 96 553 26 522 57 553 b 222 694 165 553 222 617 b 479 972 222 847 338 972 b 543 910 515 972 543 944 b 479 846 543 874 515 846 l 478 846 b 388 801 444 846 413 829 b 350 694 364 772 350 733 b 260 485 350 615 317 539 b 350 275 317 432 350 356 b 388 168 350 236 364 197 b 478 124 413 139 444 124 "},"}":{"ha":582,"x_min":0,"x_max":0,"o":"m 100 124 b 190 168 133 124 165 139 b 228 275 214 197 228 236 b 318 485 228 356 261 432 b 228 694 261 539 228 615 b 190 801 228 733 214 772 b 100 846 165 829 133 846 l 99 846 b 35 910 63 846 35 874 b 99 972 35 944 63 972 b 356 694 240 972 356 847 b 482 553 356 617 413 553 b 551 485 521 553 551 522 b 483 417 551 447 521 417 b 356 275 414 417 356 351 b 100 -1 356 122 240 -1 l 99 -1 b 35 61 64 -1 35 26 b 100 124 35 106 78 124 "},"~":{"ha":669,"x_min":0,"x_max":0,"o":"m 610 358 b 610 260 636 331 636 286 b 521 250 586 235 549 232 l 521 250 b 450 278 496 269 483 278 b 379 250 417 278 404 269 b 226 194 349 228 306 194 b 72 250 147 194 104 228 l 72 251 b 63 260 69 253 65 256 b 63 358 35 286 35 331 b 161 358 89 385 133 385 b 163 357 161 358 161 357 b 226 333 183 342 196 333 b 297 363 260 333 272 343 b 450 417 328 385 371 417 b 592 371 519 417 561 393 b 610 358 599 368 604 364 "},"Ÿ":{"ha":693,"x_min":0,"x_max":0,"o":"m 625 978 b 694 910 663 978 694 947 l 694 761 b 414 419 694 593 574 451 l 414 74 b 346 4 414 35 383 4 b 276 74 307 4 276 35 l 276 419 b -3 761 117 451 -3 593 l -3 910 b 65 978 -3 947 28 978 b 135 910 103 978 135 947 l 135 761 b 346 550 135 646 229 550 b 557 761 461 550 557 646 l 557 910 b 625 978 557 947 588 978 m 208 1114 b 160 1135 190 1114 174 1121 b 140 1183 147 1147 140 1165 b 160 1232 140 1201 147 1218 b 208 1251 174 1244 190 1251 b 257 1232 226 1251 244 1244 b 278 1183 271 1218 278 1201 b 257 1135 278 1165 271 1147 b 208 1114 244 1121 226 1114 m 483 1114 b 435 1135 465 1114 449 1121 b 415 1183 422 1147 415 1165 b 435 1232 415 1201 422 1218 b 483 1251 449 1244 465 1251 b 532 1232 501 1251 519 1244 b 553 1183 546 1218 553 1201 b 532 1135 553 1165 546 1147 b 483 1114 519 1121 501 1114 "},"¿":{"ha":624,"x_min":0,"x_max":0,"o":"m 101 461 l 101 461 l 214 575 b 258 689 242 603 256 646 b 326 740 267 719 294 740 b 393 689 357 740 385 719 b 326 492 396 615 371 543 l 207 369 b 174 279 185 344 174 313 b 314 138 174 201 236 138 b 458 297 392 138 454 201 b 525 347 465 326 493 347 b 593 279 563 347 593 317 b 314 -1 593 124 468 -1 b 33 279 160 -1 33 124 b 101 461 33 346 58 410 m 326 968 b 375 947 344 968 361 961 b 394 899 388 935 394 917 b 375 850 394 881 388 864 b 326 831 361 838 344 831 b 278 850 308 831 290 838 b 257 899 264 864 257 881 b 278 947 257 917 264 935 b 326 968 290 961 308 968 "},"A":{"ha":788,"x_min":0,"x_max":0,"o":"m 746 93 b 704 1 761 60 746 19 b 613 51 672 -6 629 10 l 563 193 l 224 193 l 165 51 b 99 1 158 19 132 1 b 83 1 90 1 90 1 b 33 93 42 19 25 60 l 331 921 b 399 971 339 947 364 971 b 464 921 432 971 456 947 l 746 93 m 274 333 l 521 333 l 399 689 l 274 333 "},"Ñ":{"ha":803,"x_min":0,"x_max":0,"o":"m 761 76 b 731 8 765 50 754 24 b 693 -3 719 0 706 -3 b 635 29 671 -3 649 8 l 181 682 l 181 65 b 113 -3 181 28 150 -3 b 43 65 75 -3 43 28 l 43 900 b 75 968 40 926 51 953 b 171 947 107 989 150 981 l 624 275 l 624 910 b 693 979 624 949 656 979 b 761 910 731 979 761 949 l 761 76 m 604 1233 b 624 1186 615 1221 624 1204 b 556 1118 624 1149 593 1118 b 519 1128 542 1118 529 1122 b 508 1136 515 1131 511 1133 b 504 1140 507 1138 506 1139 b 503 1142 504 1140 504 1142 b 488 1158 497 1147 492 1153 b 467 1174 472 1174 471 1174 b 447 1158 463 1174 461 1174 b 326 1099 426 1136 392 1099 b 207 1158 263 1099 228 1136 b 200 1165 204 1161 203 1163 b 197 1168 199 1167 199 1167 b 179 1214 186 1181 179 1196 b 247 1282 179 1251 210 1282 b 294 1263 265 1282 282 1275 b 296 1261 296 1263 296 1263 b 307 1250 300 1257 304 1254 b 326 1235 322 1235 322 1235 b 347 1250 331 1235 332 1235 b 467 1310 368 1272 403 1310 b 588 1250 532 1310 567 1272 l 604 1233 "},"Ž":{"ha":836,"x_min":0,"x_max":0,"o":"m 726 138 b 794 69 764 138 794 107 b 726 0 794 32 764 0 b 726 0 726 0 726 0 l 97 0 b 35 39 71 0 46 15 b 42 113 22 64 25 92 l 589 836 l 101 836 b 33 906 64 836 33 868 b 101 974 33 943 64 974 l 726 974 b 789 935 753 974 778 960 b 782 863 801 911 799 883 l 235 138 l 726 138 m 574 1313 b 574 1215 600 1285 600 1242 b 467 1107 472 1113 469 1110 b 417 1086 453 1093 435 1086 b 368 1107 400 1086 382 1093 b 261 1215 365 1110 363 1113 b 261 1313 235 1242 235 1285 b 358 1313 288 1339 332 1339 l 417 1253 l 476 1313 b 574 1313 503 1339 547 1339 "},"&":{"ha":890,"x_min":0,"x_max":0,"o":"m 850 107 b 861 60 861 93 861 71 b 800 -1 861 22 836 -1 b 764 22 789 -1 776 11 l 643 142 b 368 -1 586 60 488 -1 l 368 -1 b 368 -1 368 -1 368 -1 b 368 -1 368 -1 368 -1 l 368 -1 b 32 322 188 -1 32 142 b 225 624 32 454 115 564 b 175 756 188 660 175 708 l 175 756 l 175 756 b 175 779 175 767 175 767 b 381 971 188 889 274 971 l 381 971 l 381 971 b 597 779 488 971 586 889 b 597 756 597 767 597 767 l 597 756 l 597 756 b 429 551 586 660 511 575 l 572 396 l 572 431 l 572 431 b 572 443 572 431 572 443 b 632 504 572 478 597 504 b 704 443 668 504 704 478 b 704 431 704 443 704 431 l 704 431 l 704 322 b 693 263 704 299 704 286 l 850 107 m 283 767 b 283 756 283 767 283 756 b 307 685 283 731 296 708 l 344 647 b 368 647 356 647 356 647 l 381 647 b 488 756 439 660 488 696 b 476 790 488 767 476 779 b 381 864 464 828 429 864 b 283 767 332 864 283 817 m 368 118 b 561 250 451 131 525 179 l 307 515 b 164 322 225 492 164 418 b 368 118 164 215 261 118 "}}}
